<?xml version="1.0" encoding="UTF-8"?>
<svg version="1.1" xmlns="http://www.w3.org/2000/svg" width="500" height="500">
<path d="M0 0 C165 0 330 0 500 0 C500 165 500 330 500 500 C335 500 170 500 0 500 C0 335 0 170 0 0 Z " fill="#010F1F" transform="translate(0,0)"/>
<path d="M0 0 C5.34088212 4.28313419 10.46005432 8.80095382 15.4375 13.5 C16.13617188 14.14582031 16.83484375 14.79164062 17.5546875 15.45703125 C37.41067822 34.42452433 49.78124766 63.33737754 50.7734375 90.65625 C51.21999025 121.7353509 43.11614413 150.65221501 22.4375 174.5 C21.78523437 175.29664063 21.13296875 176.09328125 20.4609375 176.9140625 C2.66166398 197.91320542 -23.49239799 211.49080243 -50.5625 215.5 C-51.38234375 215.63019531 -52.2021875 215.76039063 -53.046875 215.89453125 C-83.17439319 219.79033102 -115.06205266 212.2335799 -139.25 193.625 C-141.37708755 191.94209559 -143.46986204 190.22649313 -145.5625 188.5 C-146.43777344 187.79101562 -147.31304687 187.08203125 -148.21484375 186.3515625 C-165.03576108 172.05511144 -176.24612518 152.42264803 -182.5625 131.5 C-182.87832031 130.49195313 -183.19414062 129.48390625 -183.51953125 128.4453125 C-192.44487751 98.10792865 -187.25996601 66.97289268 -172.73046875 39.328125 C-167.42745554 29.67928645 -160.06740345 21.48075784 -152.5625 13.5 C-151.9746875 12.83613281 -151.386875 12.17226562 -150.78125 11.48828125 C-137.47865672 -2.89368911 -118.25484127 -12.50829523 -99.5625 -17.5 C-98.386875 -17.87125 -97.21125 -18.2425 -96 -18.625 C-64.29673995 -26.69492074 -26.44709494 -19.32931811 0 0 Z " fill="#021525" transform="translate(318.5625,94.5)"/>
<path d="M0 0 C4.21487368 2.69418614 7.81789159 5.54300154 10.49609375 9.828125 C10.72296875 10.859375 10.94984375 11.890625 11.18359375 12.953125 C12.17438809 15.95842244 12.17438809 15.95842244 14.58203125 16.76953125 C16.20725314 17.25914857 17.84771441 17.70122618 19.5 18.08984375 C20.15871094 18.33347656 20.81742188 18.57710938 21.49609375 18.828125 C22.63253341 22.23744397 22.36357139 22.83147956 21.05859375 26.015625 C20.77113281 26.73105469 20.48367187 27.44648438 20.1875 28.18359375 C19.95933594 28.72628906 19.73117188 29.26898438 19.49609375 29.828125 C20.81609375 30.158125 22.13609375 30.488125 23.49609375 30.828125 C23.49609375 31.488125 23.49609375 32.148125 23.49609375 32.828125 C24.79933594 32.97507812 24.79933594 32.97507812 26.12890625 33.125 C35.39019483 34.32668845 40.09099541 35.93032679 46.49609375 42.828125 C46.99109375 41.838125 46.99109375 41.838125 47.49609375 40.828125 C56.23076485 41.43051611 66.11982102 42.91060984 73.49609375 47.828125 C76.20326051 47.91921848 76.20326051 47.91921848 79.18359375 47.703125 C85.15002665 47.58003112 88.4625379 48.69402419 93.49609375 51.828125 C93.82609375 52.158125 94.15609375 52.488125 94.49609375 52.828125 C95.48609375 47.218125 96.47609375 41.608125 97.49609375 35.828125 C118.61226687 36.79167853 118.61226687 36.79167853 127.49609375 37.828125 C127.52339783 39.39052532 127.54262601 40.9530677 127.55859375 42.515625 C127.57019531 43.38574219 127.58179688 44.25585938 127.59375 45.15234375 C127.49609375 47.828125 127.49609375 47.828125 126.49609375 52.828125 C121.54609375 52.498125 116.59609375 52.168125 111.49609375 51.828125 C111.49609375 52.488125 111.49609375 53.148125 111.49609375 53.828125 C112.56569336 53.79259521 113.63529297 53.75706543 114.73730469 53.72045898 C118.71044429 53.58996368 122.6837844 53.46684845 126.65722656 53.34594727 C128.37604012 53.29261931 130.09479303 53.23729736 131.81347656 53.17993164 C134.28567429 53.09776322 136.7580023 53.02279771 139.23046875 52.94921875 C139.99727966 52.92218369 140.76409058 52.89514862 141.55413818 52.86729431 C147.06206143 52.71365484 147.06206143 52.71365484 149.61553955 53.38710022 C152.18397582 53.98944608 153.16799702 52.99428598 155.49609375 51.828125 C158.5546875 51.5625 158.5546875 51.5625 161.93359375 51.578125 C163.04605469 51.57296875 164.15851563 51.5678125 165.3046875 51.5625 C168.44310275 51.82371449 170.664448 52.49434046 173.49609375 53.828125 C173.82609375 52.838125 174.15609375 51.848125 174.49609375 50.828125 C176.96908343 49.91862449 179.25791209 49.23702413 181.80859375 48.640625 C182.52466797 48.4662793 183.24074219 48.29193359 183.97851562 48.11230469 C190.18272917 46.70074942 196.14178348 46.39487657 202.49609375 46.828125 C202.49609375 46.168125 202.49609375 45.508125 202.49609375 44.828125 C203.48609375 44.828125 204.47609375 44.828125 205.49609375 44.828125 C204.83609375 41.528125 204.17609375 38.228125 203.49609375 34.828125 C205.28689225 34.32502442 207.07876286 33.82573872 208.87109375 33.328125 C209.86882812 33.0496875 210.8665625 32.77125 211.89453125 32.484375 C214.49609375 31.828125 214.49609375 31.828125 216.49609375 31.828125 C216.16609375 29.848125 215.83609375 27.868125 215.49609375 25.828125 C217.05389707 25.15055618 218.61759471 24.48653043 220.18359375 23.828125 C221.05371094 23.456875 221.92382812 23.085625 222.8203125 22.703125 C225.78063114 21.7350792 227.41484249 21.31458312 230.49609375 21.828125 C233.10420612 23.27471017 235.43950498 25.02264025 237.80859375 26.828125 C238.45376953 27.30507813 239.09894531 27.78203125 239.76367188 28.2734375 C241.34902367 29.44777216 242.92365214 30.63655896 244.49609375 31.828125 C244.04163411 30.41021092 243.58234431 28.99384454 243.12109375 27.578125 C242.73824219 26.39476562 242.73824219 26.39476562 242.34765625 25.1875 C241.55496674 22.82563644 241.55496674 22.82563644 240.39453125 20.71875 C239.49609375 18.828125 239.49609375 18.828125 239.49609375 15.828125 C241.59559961 14.96256552 243.70088445 14.11101223 245.80859375 13.265625 C247.56623047 12.55212891 247.56623047 12.55212891 249.359375 11.82421875 C252.49609375 10.828125 252.49609375 10.828125 255.49609375 11.828125 C255.49609375 12.818125 255.49609375 13.808125 255.49609375 14.828125 C256.15609375 14.828125 256.81609375 14.828125 257.49609375 14.828125 C257.55796875 14.126875 257.61984375 13.425625 257.68359375 12.703125 C259.22246661 7.25788257 262.83705372 3.98324636 267.43359375 0.953125 C273.41268818 -2.17734363 279.91898623 -1.94998859 286.49609375 -1.171875 C288.47609375 -0.181875 288.47609375 -0.181875 290.49609375 0.828125 C290.16609375 4.128125 289.83609375 7.428125 289.49609375 10.828125 C290.60984375 10.02375 290.60984375 10.02375 291.74609375 9.203125 C294.49609375 7.828125 294.49609375 7.828125 296.55859375 8.203125 C301.15854861 12.06115166 303.13486706 17.50483944 303.76953125 23.34375 C304.0259723 30.24793221 303.07715474 34.58114537 298.49609375 39.828125 C294.20425173 44.21773107 290.11379692 47.47004084 283.8125 48.09375 C278.65586905 48.06449252 274.31509778 47.91201864 269.49609375 45.828125 C269.82609375 46.735625 270.15609375 47.643125 270.49609375 48.578125 C271.49609375 51.828125 271.49609375 51.828125 271.49609375 55.828125 C269.75314697 56.69659331 268.00140712 57.54743127 266.24609375 58.390625 C265.2715625 58.86628906 264.29703125 59.34195313 263.29296875 59.83203125 C260.22411036 60.92499059 259.46988048 60.85543314 256.49609375 59.828125 C254.75683594 58.79663086 254.75683594 58.79663086 253.04296875 57.54296875 C252.42421875 57.09501953 251.80546875 56.64707031 251.16796875 56.18554688 C250.53375 55.71697266 249.89953125 55.24839844 249.24609375 54.765625 C248.59640625 54.29318359 247.94671875 53.82074219 247.27734375 53.33398438 C245.67955713 52.17088971 244.08727572 51.00023899 242.49609375 49.828125 C242.85703125 50.73175781 243.21796875 51.63539063 243.58984375 52.56640625 C244.2859375 54.33564453 244.2859375 54.33564453 244.99609375 56.140625 C245.46015625 57.31238281 245.92421875 58.48414063 246.40234375 59.69140625 C247.49609375 62.828125 247.49609375 62.828125 247.49609375 65.828125 C243.96032505 67.17747697 240.41663751 68.50469379 236.87109375 69.828125 C235.87207031 70.2096875 234.87304688 70.59125 233.84375 70.984375 C232.87050781 71.3453125 231.89726562 71.70625 230.89453125 72.078125 C229.55914307 72.58085937 229.55914307 72.58085937 228.19677734 73.09375 C225.16755151 73.91746283 222.62229371 74.02790323 219.49609375 73.828125 C217.09908182 72.44713048 215.52281655 70.75833719 213.49609375 68.828125 C213.82609375 71.468125 214.15609375 74.108125 214.49609375 76.828125 C212.95607668 77.16899834 211.41396969 77.50043453 209.87109375 77.828125 C209.01257813 78.01375 208.1540625 78.199375 207.26953125 78.390625 C204.49609375 78.828125 204.49609375 78.828125 198.49609375 78.828125 C197.50609375 73.218125 196.51609375 67.608125 195.49609375 61.828125 C194.50609375 61.498125 193.51609375 61.168125 192.49609375 60.828125 C192.71265625 61.93671875 192.92921875 63.0453125 193.15234375 64.1875 C193.43378693 65.65100453 193.71502625 67.11454827 193.99609375 68.578125 C194.13917969 69.30773437 194.28226563 70.03734375 194.4296875 70.7890625 C195.08498254 74.22156032 195.49609375 77.31981991 195.49609375 80.828125 C193.74694405 81.16589184 191.9967323 81.49816171 190.24609375 81.828125 C189.2715625 82.01375 188.29703125 82.199375 187.29296875 82.390625 C184.49609375 82.828125 184.49609375 82.828125 180.49609375 82.828125 C179.83609375 81.178125 179.17609375 79.528125 178.49609375 77.828125 C178.02558594 78.24964844 177.55507813 78.67117188 177.0703125 79.10546875 C176.44769531 79.65332031 175.82507813 80.20117188 175.18359375 80.765625 C174.56871094 81.31089844 173.95382812 81.85617187 173.3203125 82.41796875 C168.17441759 86.39584469 160.61661715 85.51270181 154.49609375 84.828125 C149.96140482 83.07655813 147.34797203 80.62683615 145.26953125 76.23828125 C144.24609375 73.515625 144.24609375 73.515625 143.48046875 70.90234375 C143.155625 70.21785156 142.83078125 69.53335938 142.49609375 68.828125 C141.17609375 68.498125 139.85609375 68.168125 138.49609375 67.828125 C138.16609375 73.768125 137.83609375 79.708125 137.49609375 85.828125 C132.21609375 85.828125 126.93609375 85.828125 121.49609375 85.828125 C121.49609375 80.218125 121.49609375 74.608125 121.49609375 68.828125 C117.86609375 68.828125 114.23609375 68.828125 110.49609375 68.828125 C110.16609375 74.108125 109.83609375 79.388125 109.49609375 84.828125 C104.01157079 84.90224018 98.88707057 84.96306749 93.49609375 83.828125 C93.16609375 82.508125 92.83609375 81.188125 92.49609375 79.828125 C91.79355469 80.15039062 91.09101563 80.47265625 90.3671875 80.8046875 C85.48031382 82.54667512 80.61409195 82.3906187 75.49609375 81.828125 C70.99418865 79.65756361 68.30521737 76.9235619 65.49609375 72.828125 C64.81813058 69.43830914 64.558128 66.13483267 64.28125 62.69140625 C64.02214844 61.74652344 63.76304687 60.80164063 63.49609375 59.828125 C61.84609375 59.168125 60.19609375 58.508125 58.49609375 57.828125 C57.17609375 63.108125 55.85609375 68.388125 54.49609375 73.828125 C49.72072714 74.78319832 48.50006995 74.8294504 44.18359375 73.390625 C42.85908203 72.95943359 42.85908203 72.95943359 41.5078125 72.51953125 C40.84394531 72.29136719 40.18007812 72.06320312 39.49609375 71.828125 C39.49609375 69.848125 39.49609375 67.868125 39.49609375 65.828125 C38.53703125 66.323125 38.53703125 66.323125 37.55859375 66.828125 C31.84835138 68.69269394 26.6561549 68.67146555 21.18359375 66.078125 C18.7559591 64.74316348 17.45024386 63.77463346 15.62109375 61.640625 C13.05779656 59.45428328 11.92258816 59.53938134 8.62109375 59.328125 C3.86964794 59.02022571 1.16109659 58.04617627 -2.50390625 54.828125 C-5.13341614 51.40976214 -5.87197394 49.12224801 -5.50390625 44.828125 C-6.07882813 45.14910156 -6.65375 45.47007812 -7.24609375 45.80078125 C-11.79546858 47.87082551 -16.32642619 47.5214185 -21.03125 46.0234375 C-28.0521578 42.88620597 -34.28805193 37.8784263 -37.44140625 30.69140625 C-38.00390625 28.765625 -38.00390625 28.765625 -38.50390625 25.828125 C-36.54871241 24.65620453 -34.58965235 23.4907321 -32.62890625 22.328125 C-31.53835937 21.6784375 -30.4478125 21.02875 -29.32421875 20.359375 C-26.50390625 18.828125 -26.50390625 18.828125 -24.50390625 18.828125 C-24.27316406 19.35921875 -24.04242188 19.8903125 -23.8046875 20.4375 C-23.47855469 21.14390625 -23.15242188 21.8503125 -22.81640625 22.578125 C-22.50316406 23.27421875 -22.18992187 23.9703125 -21.8671875 24.6875 C-20.15608948 27.37426708 -18.05264218 28.95144382 -15.50390625 30.828125 C-15.99761719 29.99667969 -16.49132812 29.16523438 -17 28.30859375 C-17.64066406 27.22191406 -18.28132813 26.13523437 -18.94140625 25.015625 C-19.57949219 23.93667969 -20.21757813 22.85773438 -20.875 21.74609375 C-23.38726689 17.24570199 -24.01736763 13.9627388 -23.50390625 8.828125 C-21.66131584 4.95233137 -19.28214629 2.38918177 -15.81640625 -0.109375 C-10.34156581 -1.8654559 -5.33777591 -2.49817905 0 0 Z " fill="#025382" transform="translate(115.50390625,292.171875)"/>
<path d="M0 0 C5.34088212 4.28313419 10.46005432 8.80095382 15.4375 13.5 C16.13617188 14.14582031 16.83484375 14.79164062 17.5546875 15.45703125 C37.41067822 34.42452433 49.78124766 63.33737754 50.7734375 90.65625 C51.21999025 121.7353509 43.11614413 150.65221501 22.4375 174.5 C21.78523437 175.29664063 21.13296875 176.09328125 20.4609375 176.9140625 C2.66166398 197.91320542 -23.49239799 211.49080243 -50.5625 215.5 C-51.38234375 215.63019531 -52.2021875 215.76039063 -53.046875 215.89453125 C-83.17439319 219.79033102 -115.06205266 212.2335799 -139.25 193.625 C-141.37708755 191.94209559 -143.46986204 190.22649313 -145.5625 188.5 C-146.43777344 187.79101562 -147.31304687 187.08203125 -148.21484375 186.3515625 C-165.03576108 172.05511144 -176.24612518 152.42264803 -182.5625 131.5 C-182.87832031 130.49195313 -183.19414062 129.48390625 -183.51953125 128.4453125 C-192.44487751 98.10792865 -187.25996601 66.97289268 -172.73046875 39.328125 C-167.42745554 29.67928645 -160.06740345 21.48075784 -152.5625 13.5 C-151.9746875 12.83613281 -151.386875 12.17226562 -150.78125 11.48828125 C-137.47865672 -2.89368911 -118.25484127 -12.50829523 -99.5625 -17.5 C-98.386875 -17.87125 -97.21125 -18.2425 -96 -18.625 C-64.29673995 -26.69492074 -26.44709494 -19.32931811 0 0 Z M-102.5625 -10.5 C-103.26036621 -10.25330566 -103.95823242 -10.00661133 -104.67724609 -9.75244141 C-135.69038834 1.4122898 -158.92974763 24.10099291 -172.875 53.640625 C-175.33241154 59.09368645 -177.1552124 64.68971359 -178.5625 70.5 C-178.82522705 71.50087646 -178.82522705 71.50087646 -179.09326172 72.52197266 C-180.84076196 79.93442908 -180.9347723 87.32945671 -180.93310547 94.90185547 C-180.93745204 97.10073973 -180.97380461 99.29756604 -181.01171875 101.49609375 C-181.09293168 111.71019242 -179.51712206 120.73803889 -176.5625 130.5 C-176.31097168 131.3338623 -176.05944336 132.16772461 -175.80029297 133.02685547 C-171.27151596 147.05567248 -164.23552207 159.37418564 -154.5625 170.5 C-153.51449219 171.74716797 -153.51449219 171.74716797 -152.4453125 173.01953125 C-136.94180468 190.97822091 -115.55731221 203.09744081 -92.5625 208.5 C-91.62535156 208.72558594 -90.68820313 208.95117188 -89.72265625 209.18359375 C-65.49805881 214.11005466 -39.40493478 209.49558116 -17.5625 198.5 C-16.92135254 198.18546875 -16.28020508 197.8709375 -15.61962891 197.546875 C11.43023758 184.06834559 30.09403875 159.00728272 39.68359375 130.83984375 C48.36691645 102.11808404 45.60174096 71.24916298 31.625 44.625 C27.8618065 37.77225439 23.407763 31.53591402 18.4375 25.5 C17.67824219 24.57574219 16.91898438 23.65148437 16.13671875 22.69921875 C-1.2065179 2.63102184 -27.11264348 -11.78209164 -53.67199707 -14.73449707 C-58.61452303 -15.08710217 -63.54810731 -15.07344956 -68.5 -15 C-69.24329559 -14.99412872 -69.98659119 -14.98825745 -70.75241089 -14.98220825 C-81.81048801 -14.87990252 -92.07156572 -14.2874619 -102.5625 -10.5 Z " fill="#00F4F5" transform="translate(318.5625,94.5)"/>
<path d="M0 0 C2.0625 0.4375 2.0625 0.4375 4 1 C4 1.66 4 2.32 4 3 C4.78503906 3.06058594 5.57007813 3.12117187 6.37890625 3.18359375 C8.54819233 3.3566043 10.71621302 3.54608475 12.8828125 3.75 C16.13309822 4.0607417 16.13309822 4.0607417 19.9375 3.9375 C23.67252056 5.23332346 23.97582045 6.13974653 25.75 9.5625 C26.53108195 11.3618241 27.28194295 13.17460954 28 15 C28.32097656 15.77085937 28.64195312 16.54171875 28.97265625 17.3359375 C30.17552323 20.34590232 31 22.7352249 31 26 C31.87986572 25.98984863 32.75973145 25.97969727 33.66625977 25.96923828 C47.10452442 25.88810034 60.52306412 26.29682962 73.95288086 26.74462891 C77.31170546 26.85452489 80.67056812 26.95598418 84.02976131 27.05343437 C87.25839609 27.14969257 90.48657815 27.25935001 93.71484375 27.3671875 C95.5223838 27.41732498 95.5223838 27.41732498 97.36643982 27.46847534 C98.47262161 27.50836578 99.57880341 27.54825623 100.71850586 27.58935547 C102.18047646 27.63598831 102.18047646 27.63598831 103.67198181 27.68356323 C106 28 106 28 108 30 C108.02709961 32.14233398 108.02709961 32.14233398 107.71484375 34.80859375 C107.6051123 35.79585449 107.49538086 36.78311523 107.38232422 37.80029297 C107.25615723 38.85619629 107.12999023 39.91209961 107 41 C106.77201011 43.15753885 106.54414744 45.31509114 106.31640625 47.47265625 C106.0667987 49.66946403 105.81548416 51.86607851 105.5625 54.0625 C105.44068359 55.18849609 105.31886719 56.31449219 105.19335938 57.47460938 C105.06896484 58.54646484 104.94457031 59.61832031 104.81640625 60.72265625 C104.70756104 61.68953369 104.59871582 62.65641113 104.48657227 63.65258789 C104 66 104 66 102 68 C99.82142639 68.33180237 99.82142639 68.33180237 97.08227539 68.45141602 C96.05683121 68.50229874 95.03138702 68.55318146 93.97486877 68.60560608 C92.86038864 68.65454514 91.74590851 68.70348419 90.59765625 68.75390625 C88.2388217 68.88672209 85.88009996 69.02155396 83.52148438 69.15820312 C79.80273754 69.3658464 76.08511641 69.56152512 72.36401367 69.72192383 C54.40579792 69.93144444 54.40579792 69.93144444 39.55249023 78.72631836 C38.04287999 80.93720061 37.55697561 82.43205752 37 85 C37.83493988 85.00808685 38.66987976 85.01617371 39.53012085 85.02450562 C47.38805329 85.10235721 55.24581219 85.18961893 63.10352135 85.28752708 C67.14352338 85.33753207 71.18349874 85.38386148 75.22363281 85.421875 C79.12057538 85.45867508 83.01729691 85.50502013 86.91405106 85.55806351 C88.40279906 85.57663565 89.89159449 85.59173314 91.38041306 85.60334396 C93.46135986 85.62015869 95.54179733 85.64918057 97.62255859 85.68115234 C99.40126846 85.70113785 99.40126846 85.70113785 101.21591187 85.7215271 C104 86 104 86 106 88 C105.625 90.125 105.625 90.125 105 92 C103.02 92 101.04 92 99 92 C99.99 93.485 99.99 93.485 101 95 C100.75 98.625 100.75 98.625 100 102 C97.20129973 103.39935013 95.09501208 103.25265405 92 103 C90.125 101.8125 90.125 101.8125 89 100 C88.53143865 96.25150923 88.84497469 95.23253796 91 92 C74.83 92.33 58.66 92.66 42 93 C42.99 94.485 42.99 94.485 44 96 C43.6758631 99.32240324 43.39223697 100.60776303 41 103 C37.5 103.25 37.5 103.25 34 103 C32 101 32 101 31.75 97.5625 C32 94 32 94 34 91 C33.319375 90.319375 32.63875 89.63875 31.9375 88.9375 C30 86 30 86 29.9375 82.5 C31.73446355 76.58059065 36.24296737 73.66971088 41 70 C38.98590083 62.84434969 36.53030232 55.96511805 33.76953125 49.06640625 C32.95895283 47.01628851 32.14840688 44.96615794 31.33789062 42.91601562 C30.06860398 39.72019934 28.79759904 36.52507374 27.52563477 33.33032227 C26.29021035 30.22317184 25.06087544 27.11366368 23.83203125 24.00390625 C23.44771439 23.0445668 23.06339752 22.08522736 22.66743469 21.09681702 C22.31674423 20.20836594 21.96605377 19.31991486 21.60473633 18.40454102 C21.29401688 17.62417984 20.98329742 16.84381866 20.66316223 16.03981018 C20 14 20 14 20 11 C18.87980469 10.87882813 17.75960937 10.75765625 16.60546875 10.6328125 C15.13276364 10.46396733 13.66010996 10.29467303 12.1875 10.125 C11.08051758 10.00705078 11.08051758 10.00705078 9.95117188 9.88671875 C6.28493819 9.45539714 4.12048255 9.0803217 1 7 C0.01941648 8.45738102 -0.95942132 9.91593675 -1.9375 11.375 C-2.48277344 12.18710938 -3.02804688 12.99921875 -3.58984375 13.8359375 C-5.01093879 15.92719184 -5.01093879 15.92719184 -6 18 C-7.32 18 -8.64 18 -10 18 C-9.52382405 12.97783177 -8.05066382 10.16970581 -5 6.1875 C-4.278125 5.23230469 -3.55625 4.27710938 -2.8125 3.29296875 C-1 1 -1 1 0 0 Z " fill="#F0F1F1" transform="translate(195,143)"/>
<path d="M0 0 C1.06347656 -0.00773437 2.12695312 -0.01546875 3.22265625 -0.0234375 C26.58979777 0.03390518 45.16672489 10.15139838 61.5 26.25 C62.50546875 27.23613281 62.50546875 27.23613281 63.53125 28.2421875 C77.7377059 43.2881158 84.2739191 65.08899664 83.78515625 85.42578125 C82.1185773 107.77620311 73.25579832 125.73505846 58.5 142.25 C57.18 141.92 55.86 141.59 54.5 141.25 C55.97249391 137.96118111 57.86177374 135.49152408 60.1875 132.75 C75.82898773 113.49675055 79.5690745 92.48549901 77.5 68.25 C76.59571296 62.59441103 74.78665546 57.50329004 72.5 52.25 C72.03078125 51.15558594 71.5615625 50.06117188 71.078125 48.93359375 C62.19838219 29.86124294 46.53316748 16.62290535 26.9609375 9.35546875 C25.81882812 8.99066406 24.67671875 8.62585938 23.5 8.25 C22.69473877 7.99105957 21.88947754 7.73211914 21.05981445 7.46533203 C2.17309654 1.79847388 -18.39567388 4.38494575 -35.82788086 13.26123047 C-55.39546594 23.90730359 -68.82417193 41.58735019 -75.4375 62.75 C-79.96652011 83.51035304 -76.19001832 105.81890494 -65.25 123.875 C-54.31157307 140.29445295 -38.30756511 152.63091166 -19.09375 157.73046875 C-13.60114545 158.83064406 -8.05806076 159.56925769 -2.5 160.25 C-2.5 161.57 -2.5 162.89 -2.5 164.25 C-23.98895406 165.39212945 -41.71625859 155.63327536 -57.28125 141.7734375 C-63.15173485 136.20354976 -67.53347427 130.28573972 -71.5 123.25 C-72.17482422 122.10144531 -72.17482422 122.10144531 -72.86328125 120.9296875 C-82.71051034 102.94248885 -85.08697509 80.36885787 -80 60.5 C-78.890625 57.40234375 -78.890625 57.40234375 -77.5 54.25 C-77.22091797 53.6120752 -76.94183594 52.97415039 -76.65429688 52.31689453 C-67.05522533 30.79031424 -52.26568294 14.76073883 -30.5 5.25 C-29.82582031 4.95480469 -29.15164062 4.65960938 -28.45703125 4.35546875 C-19.1941237 0.60223475 -9.90804379 -0.0720585 0 0 Z " fill="#00F0F1" transform="translate(249.5,109.75)"/>
<path d="M0 0 C0.99 0.33 1.98 0.66 3 1 C1.40099186 4.89244267 -1.14860544 7.38323765 -4.0625 10.375 C-17.81022114 24.98802553 -27.05006191 43.65591054 -32 63 C-32.3196875 64.23878906 -32.639375 65.47757812 -32.96875 66.75390625 C-36.86941101 84.36105664 -35.81854408 102.48066119 -32 120 C-31.7834375 120.99902344 -31.566875 121.99804688 -31.34375 123.02734375 C-24.30810607 151.54682896 -6.11377328 177.91975546 18.56640625 193.97265625 C30.766783 201.17629167 42.73495395 207.47347695 56.625 210.625 C57.553125 210.8415625 58.48125 211.058125 59.4375 211.28125 C61.95604734 211.86578391 64.47497677 212.44411223 67 213 C68.21236328 213.27589966 68.21236328 213.27589966 69.44921875 213.55737305 C99.92081426 218.84498816 132.92307464 209.33592894 158 192 C188.45475494 169.638117 203.29877568 139.68870782 209 103 C209.33058388 100.9995437 209.66228632 98.99926501 210 97 C210.99 97 211.98 97 213 97 C214.90182653 126.30221622 199.77075937 155.64753446 181.375 177.4375 C177.85993398 181.29589805 174.00370503 184.66122125 170 188 C169.18789063 188.7115625 168.37578125 189.423125 167.5390625 190.15625 C152.94683487 202.65164727 134.59673226 211.29507134 116 216 C115.32912354 216.17805176 114.65824707 216.35610352 113.96704102 216.53955078 C106.63426717 218.27114557 99.34816552 218.3046526 91.8605957 218.26074219 C89.70169656 218.25007018 87.5436388 218.26066456 85.38476562 218.2734375 C53.38155634 218.30709255 24.40812337 206.6481141 1 185 C0.22462891 184.29037109 0.22462891 184.29037109 -0.56640625 183.56640625 C-21.6791748 164.0410639 -37.90265458 134.09404584 -39.12939453 104.9230957 C-39.13052246 103.85148193 -39.13165039 102.77986816 -39.1328125 101.67578125 C-39.13410156 100.48146484 -39.13539062 99.28714844 -39.13671875 98.05664062 C-39.13285156 96.82107422 -39.12898438 95.58550781 -39.125 94.3125 C-39.12886719 93.09626953 -39.13273437 91.88003906 -39.13671875 90.62695312 C-39.09873271 55.24295691 -24.82370982 24.82370982 0 0 Z " fill="#00EEEF" transform="translate(163,100)"/>
<path d="M0 0 C0 1.32 0 2.64 0 4 C-0.5576001 4.03963867 -1.1152002 4.07927734 -1.68969727 4.12011719 C-32.14761157 6.38529746 -58.47971913 16.45265906 -79 40 C-95.29188044 60.88531925 -101.96567081 85.7161732 -100 112 C-96.47185716 137.97217797 -84.02089608 160.14711912 -64 177 C-42.01822378 193.55263632 -15.30537568 200.33174478 11.98046875 196.5390625 C29.28319414 193.15417951 44.82494268 185.70086875 58.46875 174.66015625 C59.3040625 174.11230469 60.139375 173.56445312 61 173 C61.99 173.33 62.98 173.66 64 174 C59.55008812 184.55397948 44.92257497 190.53003358 35 195 C30.71954138 196.64013143 26.4410618 197.87983409 22 199 C21.06027344 199.29648437 20.12054688 199.59296875 19.15234375 199.8984375 C-5.47540397 206.97201985 -32.53848264 201.04618404 -54.54638672 189.21728516 C-60.6183267 185.8090015 -65.87004727 181.70883721 -71 177 C-72.38832031 175.73349609 -72.38832031 175.73349609 -73.8046875 174.44140625 C-92.82566996 156.28980388 -104.55051275 131.17841221 -105.45727539 104.85742188 C-105.69821067 88.39121643 -103.02249574 71.57097871 -95 57 C-94.57203125 56.12988281 -94.1440625 55.25976562 -93.703125 54.36328125 C-82.29485006 31.89923424 -62.0521728 14.34519808 -38.40625 5.68359375 C-35.28596848 4.71387323 -32.15827042 3.83601276 -29 3 C-27.80375 2.608125 -26.6075 2.21625 -25.375 1.8125 C-17.05584826 -0.19025875 -8.51336913 -0.14820178 0 0 Z " fill="#00EFF0" transform="translate(254,91)"/>
<path d="M0 0 C3.31180854 1.65590427 3.97527262 5.31792045 5.29296875 8.61328125 C5.60325516 9.37924118 5.91354156 10.14520111 6.23323059 10.93437195 C6.88813014 12.5579261 7.53937201 14.18295967 8.18725586 15.80932617 C9.18132693 18.29705151 10.19439751 20.77644269 11.20898438 23.25585938 C11.84232295 24.8328611 12.47452232 26.41032092 13.10546875 27.98828125 C13.56314888 29.10098137 13.56314888 29.10098137 14.03007507 30.23616028 C16.41664448 36.31079699 16.41664448 36.31079699 15 40 C12.33140903 41.55667807 10.67926869 42.07788322 7.59814453 41.72460938 C4.74668375 40.92935138 3.03779507 39.86702116 0.6796875 38.09375 C-0.10277344 37.51496094 -0.88523437 36.93617188 -1.69140625 36.33984375 C-2.49449219 35.73269531 -3.29757812 35.12554687 -4.125 34.5 C-5.72925759 33.29871967 -7.33592789 32.10065279 -8.9453125 30.90625 C-9.65187988 30.37322266 -10.35844727 29.84019531 -11.08642578 29.29101562 C-13.07192764 27.82689422 -13.07192764 27.82689422 -16 27 C-15.75765625 27.59538574 -15.5153125 28.19077148 -15.265625 28.80419922 C-14.17350176 31.49302765 -13.08669081 34.18397174 -12 36.875 C-11.6184375 37.81214844 -11.236875 38.74929688 -10.84375 39.71484375 C-10.4828125 40.61074219 -10.121875 41.50664062 -9.75 42.4296875 C-9.41484375 43.25710449 -9.0796875 44.08452148 -8.734375 44.93701172 C-8 47 -8 47 -8 49 C-10.97 49.99 -13.94 50.98 -17 52 C-19.14065875 46.76904984 -21.27678774 41.53628228 -23.40869141 36.30175781 C-24.13497886 34.52032254 -24.86251396 32.73939542 -25.59130859 30.95898438 C-26.6370557 28.40366219 -27.67834086 25.84656188 -28.71875 23.2890625 C-29.04685669 22.49005524 -29.37496338 21.69104797 -29.7130127 20.86782837 C-32 15.22774341 -32 15.22774341 -32 13 C-25.03993521 9.65381501 -25.03993521 9.65381501 -21 11 C-18.94116211 12.27514648 -18.94116211 12.27514648 -16.77734375 13.87109375 C-15.99166016 14.44537109 -15.20597656 15.01964844 -14.39648438 15.61132812 C-13.58501953 16.21396484 -12.77355469 16.81660156 -11.9375 17.4375 C-10.32184732 18.62401489 -8.70597109 19.81022546 -7.08984375 20.99609375 C-6.02044556 21.78777954 -6.02044556 21.78777954 -4.92944336 22.59545898 C-3.31495858 23.77072546 -1.66156348 24.89229102 0 26 C-1.81885876 20.29539751 -3.86487199 14.7637247 -6.23046875 9.26171875 C-7 7 -7 7 -7 3 C-4.69631264 1.93347808 -2.35981813 0.93578995 0 0 Z " fill="#36B3FB" transform="translate(367,307)"/>
<path d="M0 0 C0.7734375 -0.00257813 1.546875 -0.00515625 2.34375 -0.0078125 C4.5 0.125 4.5 0.125 7.5 1.125 C6.84 4.095 6.18 7.065 5.5 10.125 C4.48679687 10.05539062 4.48679687 10.05539062 3.453125 9.984375 C-2.02156039 9.73697329 -2.02156039 9.73697329 -7.125 11.4375 C-9.38589533 15.85652268 -9.09134299 20.27166061 -8.5 25.125 C-6.82637663 29.35310115 -4.64878867 31.29181431 -0.5 33.125 C3.38588268 33.52151864 6.27193696 33.43075932 9.5 31.125 C11.5683099 28.12595064 11.69927643 25.71197577 11.5 22.125 C10.5925 22.640625 9.685 23.15625 8.75 23.6875 C5.5 25.125 5.5 25.125 3.25 25.125 C1.5 24.125 1.5 24.125 -0.5 19.125 C4.78 16.155 10.06 13.185 15.5 10.125 C19.81422875 14.43922875 21.27817267 18.12855403 21.9375 24.0625 C21.66753905 29.64529234 19.66679448 34.15090463 15.5234375 37.92578125 C9.06417995 42.84656109 4.66682718 43.89858309 -3.5 43.125 C-9.67485745 41.37878818 -14.02918848 37.44175267 -17.5 32.125 C-20.50027156 26.10390707 -20.10331431 19.69184426 -19.5 13.125 C-17.13546548 7.60775278 -12.50122035 4.27772002 -7.5 1.125 C-4.68772378 0.18757459 -2.91253156 -0.00970844 0 0 Z " fill="#36B3FB" transform="translate(394.5,293.875)"/>
<path d="M0 0 C7.33333333 0 14.66666667 0 22 0 C22.495 5.94 22.495 5.94 23 12 C23.33 11.67 23.66 11.34 24 11 C27.6691577 10.85689713 31.32715441 10.95778338 35 11 C35 14.63 35 18.26 35 22 C31.04 22 27.08 22 23 22 C22.67 25.3 22.34 28.6 22 32 C18 32 14 32 10 32 C8.2907434 32.15691536 6.58248679 32.32487315 4.875 32.5 C2.461875 32.7475 2.461875 32.7475 0 33 C0 29.37 0 25.74 0 22 C-0.66 21.67 -1.32 21.34 -2 21 C-2 18.03 -2 15.06 -2 12 C-5.3 12 -8.6 12 -12 12 C-12 11.67 -12 11.34 -12 11 C-6.06 10.505 -6.06 10.505 0 10 C0 6.7 0 3.4 0 0 Z " fill="#B4B8BD" transform="translate(253,175)"/>
<path d="M0 0 C2.5 0.125 2.5 0.125 3.5 1.125 C3.86760731 3.45317964 4.20241581 5.7868385 4.5 8.125 C5.16 7.465 5.82 6.805 6.5 6.125 C9.20269766 6.03920007 11.80753896 6.02903109 14.5 6.125 C15.49 6.125 16.48 6.125 17.5 6.125 C17.83 5.795 18.16 5.465 18.5 5.125 C20.12139437 5.00005384 21.74884122 4.94928376 23.375 4.9375 C24.25929688 4.92332031 25.14359375 4.90914063 26.0546875 4.89453125 C28.5 5.125 28.5 5.125 31.5 7.125 C31.5 7.785 31.5 8.445 31.5 9.125 C32.386875 8.465 33.27375 7.805 34.1875 7.125 C37.48452981 5.13434049 38.77764369 4.42077043 42.5 5.125 C44.3125 6.625 44.3125 6.625 45.5 8.125 C46.16 7.465 46.82 6.805 47.5 6.125 C54.60659898 5.44818105 54.60659898 5.44818105 57.5625 7.6875 C58.90411569 11.1757008 58.42678615 13.55025344 57.5 17.125 C54.01064529 19.45123648 52.59517402 19.37572494 48.5 19.125 C47.16666667 18.79166667 45.83333333 18.45833333 44.5 18.125 C43.51 18.62 43.51 18.62 42.5 19.125 C37.07692308 19.58653846 37.07692308 19.58653846 34.625 17.625 C34.25375 17.13 33.8825 16.635 33.5 16.125 C33.005 17.61 33.005 17.61 32.5 19.125 C27.55 19.125 22.6 19.125 17.5 19.125 C17.5 18.465 17.5 17.805 17.5 17.125 C16.51 17.785 15.52 18.445 14.5 19.125 C8.22381588 19.68537358 8.22381588 19.68537358 5.5625 17.625 C5.211875 17.13 4.86125 16.635 4.5 16.125 C4.17 17.115 3.84 18.105 3.5 19.125 C1.19 19.125 -1.12 19.125 -3.5 19.125 C-3.52683987 16.14577407 -3.54676037 13.16678705 -3.5625 10.1875 C-3.57087891 9.33736328 -3.57925781 8.48722656 -3.58789062 7.61132812 C-3.59111328 6.80244141 -3.59433594 5.99355469 -3.59765625 5.16015625 C-3.60289307 4.4112915 -3.60812988 3.66242676 -3.61352539 2.89086914 C-3.43038747 0.04218825 -2.85084039 0.14254202 0 0 Z " fill="#024B76" transform="translate(340.5,397.875)"/>
<path d="M0 0 C4.08762533 2.72508355 6.94125642 6.19014483 10 10 C7.6875 12.5 7.6875 12.5 5 15 C4.01 15 3.02 15 2 15 C1.401875 14.195625 0.80375 13.39125 0.1875 12.5625 C-1.81773871 9.71154069 -1.81773871 9.71154069 -5.25 9.1875 C-6.1575 9.125625 -7.065 9.06375 -8 9 C-7.76437124 13.47694645 -6.33823629 16.21458326 -3.9375 19.875 C-0.93751993 24.7010549 0.03260384 27.36761543 -1 33 C-2.78788383 36.00600248 -4.81898025 38.40949012 -8 40 C-15.18925677 40.9708569 -20.23119064 40.20312509 -26.046875 35.7890625 C-29.01722674 33.06822031 -31.00889561 30.51761775 -33 27 C-32 24 -32 24 -29.625 22.25 C-27 21 -27 21 -24 22 C-22.859375 23.59375 -22.859375 23.59375 -21.75 25.5 C-19.5869098 28.73471286 -19.25810321 28.936532 -15.1875 29.9375 C-14.135625 29.958125 -13.08375 29.97875 -12 30 C-11.63481771 25.67220137 -12.60961432 23.4330469 -14.9375 19.8125 C-15.48277344 18.95269531 -16.02804688 18.09289062 -16.58984375 17.20703125 C-17.05519531 16.47871094 -17.52054688 15.75039063 -18 15 C-19.45147903 12.09704195 -19.37239025 10.22738221 -19 7 C-13.89090685 -0.37980122 -8.8722944 -2.95743147 0 0 Z " fill="#36B2FB" transform="translate(114,295)"/>
<path d="M0 0 C2.31 0 4.62 0 7 0 C7 6.6 7 13.2 7 20 C-3.625 20.25 -3.625 20.25 -7 18 C-7 17.34 -7 16.68 -7 16 C-7.66 16 -8.32 16 -9 16 C-9.495 17.485 -9.495 17.485 -10 19 C-13.17878694 20.58939347 -15.4956772 20.41576711 -19 20 C-21.0264466 18.19511156 -22.37777682 16.20802599 -24 14 C-24.99 13.67 -25.98 13.34 -27 13 C-27 15.31 -27 17.62 -27 20 C-29.31 20 -31.62 20 -34 20 C-34.33 17.03 -34.66 14.06 -35 11 C-36.175625 11.7425 -36.175625 11.7425 -37.375 12.5 C-40 14 -40 14 -42 14 C-42 15.98 -42 17.96 -42 20 C-44.31 20 -46.62 20 -49 20 C-49 13.73 -49 7.46 -49 1 C-38.4960443 0.62927215 -38.4960443 0.62927215 -36.14453125 2.38671875 C-35 4 -35 4 -35 6 C-34.15695313 5.97679687 -33.31390625 5.95359375 -32.4453125 5.9296875 C-30.80175781 5.90261719 -30.80175781 5.90261719 -29.125 5.875 C-27.48917969 5.84019531 -27.48917969 5.84019531 -25.8203125 5.8046875 C-23 6 -23 6 -21 8 C-20.67 7.67 -20.34 7.34 -20 7 C-18.0390625 6.796875 -18.0390625 6.796875 -15.625 6.75 C-14.83351562 6.72421875 -14.04203125 6.6984375 -13.2265625 6.671875 C-10.52975122 7.06929982 -9.69270985 7.92506535 -8 10 C-7.13375 9.01 -7.13375 9.01 -6.25 8 C-4 6 -4 6 0 6 C0 4.02 0 2.04 0 0 Z " fill="#014B77" transform="translate(151,397)"/>
<path d="M0 0 C6.6 0 13.2 0 20 0 C20 0.99 20 1.98 20 3 C20.66 3 21.32 3 22 3 C22 2.01 22 1.02 22 0 C24.64 0 27.28 0 30 0 C30 0.66 30 1.32 30 2 C30.66 1.67 31.32 1.34 32 1 C33.875 0.83203125 33.875 0.83203125 36 0.8125 C37.051875 0.79123047 37.051875 0.79123047 38.125 0.76953125 C40 1 40 1 42 3 C42.33 2.01 42.66 1.02 43 0 C44.58246707 -0.08153933 46.16616273 -0.13943557 47.75 -0.1875 C49.07257813 -0.23970703 49.07257813 -0.23970703 50.421875 -0.29296875 C53.57244954 0.06505108 54.85816071 0.65984226 57 3 C57.53965062 6.72898579 57.17817802 10.21371706 57 14 C52.38 14 47.76 14 43 14 C42.505 12.515 42.505 12.515 42 11 C41.62875 11.495 41.2575 11.99 40.875 12.5 C39 14 39 14 36.125 14.5 C32.02174038 13.84347846 30.64822119 12.10220196 28 9 C27.67 8.67 27.34 8.34 27 8 C26.01 9.98 25.02 11.96 24 14 C22.35 14 20.7 14 19 14 C17.02 10.535 17.02 10.535 15 7 C14.67 9.31 14.34 11.62 14 14 C9.38 14 4.76 14 0 14 C0 9.38 0 4.76 0 0 Z " fill="#004771" transform="translate(279,403)"/>
<path d="M0 0 C5.67458259 1.89152753 9.32628019 5.65256038 12 11 C12.78765281 17.63878794 12.78765281 17.63878794 10.8359375 21.01171875 C6.96566717 25.74535708 3.81459231 27.68136691 -2.3125 28.375 C-8.18261858 27.77803879 -12.37147406 25.71204009 -16.4375 21.4375 C-19.11868568 17.25485034 -19.41531474 13.90071396 -19 9 C-14.29500767 0.26215711 -9.43707192 -0.98760055 0 0 Z " fill="#36B2FB" transform="translate(148,329)"/>
<path d="M0 0 C3.11978191 2.15413513 4.80214719 3.44723327 6.625 6.8125 C7.3768087 11.9063875 7.48068359 16.23277646 5 20.8125 C-0.56327477 25.49736296 -5.27597798 26.46034935 -12.453125 26.30859375 C-16.95021404 25.54505056 -19.57155456 23.31453864 -22.375 19.8125 C-24.34741167 15.86767665 -23.81686332 11.11288811 -23.375 6.8125 C-18.62159153 -1.96302333 -8.72383253 -3.06949663 0 0 Z " fill="#36B3FB" transform="translate(286.375,348.1875)"/>
<path d="M0 0 C7.92 0.66 15.84 1.32 24 2 C24 4.64 24 7.28 24 10 C19.05 10.33 14.1 10.66 9 11 C8.67 13.31 8.34 15.62 8 18 C12.29 18 16.58 18 21 18 C21 20.97 21 23.94 21 27 C14.07 26.505 14.07 26.505 7 26 C6.67 31.28 6.34 36.56 6 42 C3.03 42 0.06 42 -3 42 C-3.25956344 32.87201907 -2.85718478 23.90841903 -2.0625 14.8125 C-1.97564941 13.80888428 -1.88879883 12.80526855 -1.79931641 11.77124023 C-1.42586586 7.7043569 -0.99399061 3.97596244 0 0 Z " fill="#36B2FB" transform="translate(216,331)"/>
<path d="M0 0 C2.31 0 4.62 0 7 0 C7 1.32 7 2.64 7 4 C7.66 4 8.32 4 9 4 C8.67 6.64 8.34 9.28 8 12 C8.66 12 9.32 12 10 12 C9.938125 10.88625 9.87625 9.7725 9.8125 8.625 C9.9053125 6.830625 9.9053125 6.830625 10 5 C13 3 13 3 16.625 3.25 C18.295625 3.62125 18.295625 3.62125 20 4 C20.495 4.99 20.495 4.99 21 6 C20.67 6.99 20.34 7.98 20 9 C20.020625 10.010625 20.04125 11.02125 20.0625 12.0625 C20 15 20 15 18 17 C15.47524284 17.19893799 13.08485251 17.27847435 10.5625 17.25 C9.88123047 17.25773437 9.19996094 17.26546875 8.49804688 17.2734375 C4.78590558 17.25889434 3.16410628 17.10940418 0 15 C-0.66 15.66 -1.32 16.32 -2 17 C-5.79877599 17.35173852 -8.14360153 17.52701444 -11.4375 15.5 C-11.953125 15.005 -12.46875 14.51 -13 14 C-13.53625 14.495 -14.0725 14.99 -14.625 15.5 C-17.68245535 17.43102443 -19.438173 17.44522837 -23 17 C-25.171875 15.83203125 -25.171875 15.83203125 -27 14 C-27.53965062 10.27101421 -27.17817802 6.78628294 -27 3 C-22.38 3 -17.76 3 -13 3 C-12.67 3.99 -12.34 4.98 -12 6 C-11.505 5.484375 -11.01 4.96875 -10.5 4.4375 C-6.75285548 2.2828919 -4.19155387 3.23154846 0 4 C0 2.68 0 1.36 0 0 Z " fill="#034E7B" transform="translate(186,400)"/>
<path d="M0 0 C4.15798015 1.68088559 6.72972227 4.13211942 9 8 C9.32101581 11.03181598 9.23808873 13.96436873 9 17 C2.60794144 16.27637073 -3.68027076 15.19656638 -10 14 C-8.9354148 16.60943058 -8.9354148 16.60943058 -7 19 C-4.04211431 19.4167552 -4.04211431 19.4167552 -1 19 C3 19 3 19 5.25 21 C5.8275 21.66 6.405 22.32 7 23 C2.48997159 26.57691909 -1.06444492 27.34418834 -6.71484375 27.2890625 C-11.33898413 26.7041285 -15.09183662 23.52040831 -18 20 C-19.36439276 15.90682172 -19.77052642 12.26970603 -19 8 C-14.16589658 -0.03204875 -8.92806705 -0.71165752 0 0 Z " fill="#35B2FA" transform="translate(202,344)"/>
<path d="M0 0 C3.39386147 0.72684723 4.92056641 1.98522186 7.31640625 4.49609375 C8.31798767 7.25116013 9.03601736 9.66254685 9.62890625 12.49609375 C9.79712891 13.20765625 9.96535156 13.91921875 10.13867188 14.65234375 C10.91282624 18.03966409 11.31640625 21.00527135 11.31640625 24.49609375 C9.31640625 25.49609375 9.31640625 25.49609375 2.31640625 25.49609375 C0.99640625 20.21609375 -0.32359375 14.93609375 -1.68359375 9.49609375 C-6.16061739 8.4307217 -6.16061739 8.4307217 -8.68359375 8.49609375 C-8.81292977 15.25030826 -8.45075126 21.78346554 -7.68359375 28.49609375 C-10.65359375 28.82609375 -13.62359375 29.15609375 -16.68359375 29.49609375 C-17.35457069 25.89271562 -18.01963332 22.28827079 -18.68359375 18.68359375 C-18.874375 17.65943359 -19.06515625 16.63527344 -19.26171875 15.58007812 C-19.4421875 14.59716797 -19.62265625 13.61425781 -19.80859375 12.6015625 C-19.97617187 11.69559326 -20.14375 10.78962402 -20.31640625 9.85620117 C-20.68359375 7.49609375 -20.68359375 7.49609375 -20.68359375 4.49609375 C-18.68359375 3.49609375 -18.68359375 3.49609375 -14.80859375 3.62109375 C-11.50383891 3.7318764 -11.50383891 3.7318764 -8.74609375 1.99609375 C-5.86656318 -0.0981103 -3.48093309 0.09080695 0 0 Z " fill="#36B2FB" transform="translate(314.68359375,341.50390625)"/>
<path d="M0 0 C2.64 0.99 5.28 1.98 8 3 C6.8905928 6.48670834 5.73662334 9.77484237 4 13 C5.65 13.66 7.3 14.32 9 15 C8.01 16.98 7.02 18.96 6 21 C4.35 20.67 2.7 20.34 1 20 C-1.03435531 23.72965139 -2 25.66905042 -2 30 C-1.34 30.33 -0.68 30.66 0 31 C-0.33 33.31 -0.66 35.62 -1 38 C-5.19769372 37.75307684 -7.52655584 37.3525648 -10.9375 34.8125 C-13.43342751 31.40896249 -13.36956162 30.13605268 -13 26 C-11.90625 23.0078125 -11.90625 23.0078125 -10.5 20.125 C-10.0359375 19.15820312 -9.571875 18.19140625 -9.09375 17.1953125 C-8.55234375 16.10863281 -8.55234375 16.10863281 -8 15 C-8.66 14.67 -9.32 14.34 -10 14 C-9.125 9.25 -9.125 9.25 -8 7 C-6.68 7 -5.36 7 -4 7 C-2.68 4.69 -1.36 2.38 0 0 Z " fill="#35B1FA" transform="translate(126,310)"/>
<path d="M0 0 C3 5.75 3 5.75 3 8 C4.98 8 6.96 8 9 8 C9.33 9.98 9.66 11.96 10 14 C8.68 14.33 7.36 14.66 6 15 C6.66 17.97 7.32 20.94 8 24 C8.763125 24.04125 9.52625 24.0825 10.3125 24.125 C13 25 13 25 14.8125 28.0625 C15.204375 29.031875 15.59625 30.00125 16 31 C12.55763285 33.77068575 10.80536418 35.01365024 6.3125 34.9375 C2.94510609 33.98446399 2.09328644 33.6253788 0 31 C-0.94921875 28.625 -0.94921875 28.625 -1.6875 26 C-2.06455078 24.700625 -2.06455078 24.700625 -2.44921875 23.375 C-3 21 -3 21 -3 18 C-4.65 18 -6.3 18 -8 18 C-8.33 16.02 -8.66 14.04 -9 12 C-8.01 11.67 -7.02 11.34 -6 11 C-6.66 7.7 -7.32 4.4 -8 1 C-5.07175348 0.02391783 -3.04386724 -0.08226668 0 0 Z " fill="#35B2FA" transform="translate(331,328)"/>
<path d="M0 0 C7.33333333 0 14.66666667 0 22 0 C22 3.96 22 7.92 22 12 C18.7 12 15.4 12 12 12 C12 14.97 12 17.94 12 21 C7.71970042 23.14014979 7.11227246 23.15816979 2.75 22.125 C1.85796875 21.92132813 0.9659375 21.71765625 0.046875 21.5078125 C-0.62859375 21.34023437 -1.3040625 21.17265625 -2 21 C-2 18.03 -2 15.06 -2 12 C-5.3 12 -8.6 12 -12 12 C-12 11.67 -12 11.34 -12 11 C-6.06 10.505 -6.06 10.505 0 10 C0 6.7 0 3.4 0 0 Z " fill="#E6E8E9" transform="translate(253,175)"/>
<path d="M0 0 C2.375 1 2.375 1 4 2 C3.39816251 4.02045442 2.72693904 6.02111039 2 8 C-0.86177057 9.43088528 -2.93375773 8.59991697 -6 8 C-5.67 9.32 -5.34 10.64 -5 12 C-1.66799815 12.41771804 -1.66799815 12.41771804 2 12 C2.61875 11.175 3.2375 10.35 3.875 9.5 C6 7 6 7 8.13671875 6.5625 C14.22808507 6.40555658 14.22808507 6.40555658 16.75 8.34765625 C18 10 18 10 18.4375 12.9375 C18 16 18 16 16.4375 18.375 C13.12030578 20.58646281 10.91054241 20.42660463 7 20 C6.01 19.34 5.02 18.68 4 18 C3.01 18.66 2.02 19.32 1 20 C-5.94677871 20.67226891 -5.94677871 20.67226891 -9.9375 18.125 C-13.07093316 14.89661432 -13.39218693 12.55070291 -13.359375 8.0390625 C-12.7567698 4.61993302 -10.63213933 3.06810948 -8 1 C-5.2201184 -0.3899408 -3.0813674 -0.18488204 0 0 Z " fill="#035280" transform="translate(260,397)"/>
<path d="M0 0 C2.31 0 4.62 0 7 0 C7 1.32 7 2.64 7 4 C7.66 4 8.32 4 9 4 C9.33 7.96 9.66 11.92 10 16 C7.69 16.33 5.38 16.66 3 17 C2.01 15.68 1.02 14.36 0 13 C-0.33 14.32 -0.66 15.64 -1 17 C-10.97594419 17.61919654 -10.97594419 17.61919654 -14.6875 15.375 C-16.40455522 12.26794769 -16.58338557 10.50031342 -16 7 C-14.359375 4.828125 -14.359375 4.828125 -12 3 C-8.984375 2.609375 -8.984375 2.609375 -5.75 2.75 C-4.67234375 2.78609375 -3.5946875 2.8221875 -2.484375 2.859375 C-1.25460938 2.92898438 -1.25460938 2.92898438 0 3 C0 2.01 0 1.02 0 0 Z " fill="#004873" transform="translate(230,400)"/>
<path d="M0 0 C-1.875 5.75 -1.875 5.75 -3 8 C-4.299375 7.979375 -5.59875 7.95875 -6.9375 7.9375 C-8.29165633 7.91600546 -9.64756083 7.92851801 -11 8 C-13.11925604 10.11925604 -12.41831017 14.6196093 -12.5625 17.5625 C-12.60568359 18.36880859 -12.64886719 19.17511719 -12.69335938 20.00585938 C-12.79975262 22.00368805 -12.90040888 24.0018207 -13 26 C-15.97 26 -18.94 26 -22 26 C-22 17.42 -22 8.84 -22 0 C-19.03 0 -16.06 0 -13 0 C-13 0.66 -13 1.32 -13 2 C-12.2884375 1.2265625 -12.2884375 1.2265625 -11.5625 0.4375 C-7.69002384 -1.73486467 -4.24770076 -0.75333154 0 0 Z " fill="#35B1F9" transform="translate(263,349)"/>
<path d="M0 0 C2.64 0.33 5.28 0.66 8 1 C8.33 1.99 8.66 2.98 9 4 C9.66 3.67 10.32 3.34 11 3 C17.47058824 2.64705882 17.47058824 2.64705882 21 5 C20.43669096 8.26719244 19.64924518 9.96575817 17 12 C14.73828125 12.07421875 14.73828125 12.07421875 12.3125 11.6875 C11.50425781 11.56761719 10.69601563 11.44773437 9.86328125 11.32421875 C9.24839844 11.21722656 8.63351563 11.11023438 8 11 C7.60167969 11.99580078 7.60167969 11.99580078 7.1953125 13.01171875 C5.46354167 17.34114583 3.73177083 21.67057292 2 26 C-0.64 25.67 -3.28 25.34 -6 25 C-5.52897524 16.20753786 -2.75783166 8.29384797 0 0 Z " fill="#36B2FA" transform="translate(165,337)"/>
<path d="M0 0 C1.58246707 -0.08153933 3.16616273 -0.13943557 4.75 -0.1875 C6.07257813 -0.23970703 6.07257813 -0.23970703 7.421875 -0.29296875 C10.57244954 0.06505108 11.85816071 0.65984226 14 3 C14.390625 5.69921875 14.390625 5.69921875 14.25 8.6875 C14.21390625 9.68136719 14.1778125 10.67523438 14.140625 11.69921875 C14.07101562 12.83810547 14.07101562 12.83810547 14 14 C11.70890403 14.08075665 9.41700733 14.13907731 7.125 14.1875 C5.84882813 14.22230469 4.57265625 14.25710938 3.2578125 14.29296875 C2.18273437 14.19628906 1.10765625 14.09960938 0 14 C-0.66 13.01 -1.32 12.02 -2 11 C-2.99 11.495 -2.99 11.495 -4 12 C-9.26843658 12.44837758 -9.26843658 12.44837758 -11.9375 10.8125 C-13 9 -13 9 -12.8125 6.4375 C-12 4 -12 4 -10 2 C-7.5 1.75 -7.5 1.75 -5 2 C-3 4 -3 4 -3 7 C-4.98 7 -6.96 7 -9 7 C-8.67 7.66 -8.34 8.32 -8 9 C-5.00594421 8.53146378 -5.00594421 8.53146378 -2 7 C-0.53977565 3.47548841 -0.53977565 3.47548841 0 0 Z " fill="#004771" transform="translate(322,403)"/>
<path d="M0 0 C3.875 0.5625 3.875 0.5625 5.9375 2.125 C7.27911569 5.6132008 6.80178615 7.98775344 5.875 11.5625 C2.34925575 13.91299617 1.02527493 13.88801176 -3.125 13.5625 C-5.125 12.89583333 -7.125 12.22916667 -9.125 11.5625 C-10.1975 11.5625 -11.27 11.5625 -12.375 11.5625 C-13.2825 11.5625 -14.19 11.5625 -15.125 11.5625 C-17.125 9.5625 -17.125 9.5625 -17.4375 6.5625 C-17.334375 5.5725 -17.23125 4.5825 -17.125 3.5625 C-13.89708445 1.4105563 -12.84099191 1.36163557 -9.125 1.5625 C-9.125 2.5525 -9.125 3.5425 -9.125 4.5625 C-9.764375 4.68625 -10.40375 4.81 -11.0625 4.9375 C-12.0834375 5.246875 -12.0834375 5.246875 -13.125 5.5625 C-13.455 6.2225 -13.785 6.8825 -14.125 7.5625 C-13.465 7.5625 -12.805 7.5625 -12.125 7.5625 C-12.125 6.9025 -12.125 6.2425 -12.125 5.5625 C-11.135 5.5625 -10.145 5.5625 -9.125 5.5625 C-8.403125 4.7375 -7.68125 3.9125 -6.9375 3.0625 C-4.07285327 0.51614736 -3.57760643 0.15098156 0 0 Z " fill="#024D7A" transform="translate(392.125,403.4375)"/>
<path d="M0 0 C2.64 0 5.28 0 8 0 C8 0.66 8 1.32 8 2 C8.66 1.67 9.32 1.34 10 1 C11.875 0.83203125 11.875 0.83203125 14 0.8125 C15.051875 0.79123047 15.051875 0.79123047 16.125 0.76953125 C18 1 18 1 20 3 C19.625 5.625 19.625 5.625 19 8 C17.02 8.66 15.04 9.32 13 10 C12.67 9.01 12.34 8.02 12 7 C13.98 7 15.96 7 18 7 C17.34 5.68 16.68 4.36 16 3 C13.58354218 2.83312552 13.58354218 2.83312552 11 3 C10.34 3.66 9.68 4.32 9 5 C9.28983269 8.30683466 9.28983269 8.30683466 11 11 C13.95817107 11.25005386 13.95817107 11.25005386 17 11 C17.66 10.34 18.32 9.68 19 9 C19 10.32 19 11.64 19 13 C16.11138291 14.44430855 14.20352299 14.37688506 11 14 C8.1875 11.5625 8.1875 11.5625 6 9 C5.67 8.67 5.34 8.34 5 8 C4.4225 8.680625 3.845 9.36125 3.25 10.0625 C1 12 1 12 -1 12.1875 C-4.28902217 10.23464309 -5.32806486 7.40358225 -7 4 C-7 3.34 -7 2.68 -7 2 C-5.35 1.67 -3.7 1.34 -2 1 C-2 1.66 -2 2.32 -2 3 C-1.34 3 -0.68 3 0 3 C0 2.01 0 1.02 0 0 Z " fill="#035382" transform="translate(301,403)"/>
<path d="M0 0 C2.31 0 4.62 0 7 0 C7 1.32 7 2.64 7 4 C7.66 4 8.32 4 9 4 C8.67 7.63 8.34 11.26 8 15 C6.35 15 4.7 15 3 15 C2 14 2 14 1.9375 10.9375 C1.9684375 9.4834375 1.9684375 9.4834375 2 8 C1.34 8 0.68 8 0 8 C-0.33 7.34 -0.66 6.68 -1 6 C-1.66 6.66 -2.32 7.32 -3 8 C-4.32 8 -5.64 8 -7 8 C-7 9.32 -7 10.64 -7 12 C-5.68 12 -4.36 12 -3 12 C-3 12.99 -3 13.98 -3 15 C-5.31 14.67 -7.62 14.34 -10 14 C-11.31690141 8.61267606 -11.31690141 8.61267606 -10.0625 6.1875 C-6.83374633 4.32852061 -3.69614661 4.30296284 0 4 C0 2.68 0 1.36 0 0 Z " fill="#065D90" transform="translate(186,400)"/>
<path d="M0 0 C1.670625 0.37125 1.670625 0.37125 3.375 0.75 C3.705 1.41 4.035 2.07 4.375 2.75 C4.045 3.74 3.715 4.73 3.375 5.75 C3.395625 6.760625 3.41625 7.77125 3.4375 8.8125 C3.375 11.75 3.375 11.75 1.375 13.75 C-1.20564129 13.89497985 -3.67443884 13.93677545 -6.25 13.875 C-6.95640625 13.86597656 -7.6628125 13.85695313 -8.390625 13.84765625 C-10.13556098 13.82407603 -11.88032295 13.78820461 -13.625 13.75 C-12.6659375 13.3478125 -12.6659375 13.3478125 -11.6875 12.9375 C-9.29368314 11.86332248 -9.29368314 11.86332248 -8.625 8.75 C-7.965 8.75 -7.305 8.75 -6.625 8.75 C-6.686875 7.63625 -6.74875 6.5225 -6.8125 5.375 C-6.750625 4.17875 -6.68875 2.9825 -6.625 1.75 C-3.625 -0.25 -3.625 -0.25 0 0 Z " fill="#035382" transform="translate(202.625,403.25)"/>
<path d="M0 0 C0.99 0 1.98 0 3 0 C3 5.28 3 10.56 3 16 C-3.8359375 16.1953125 -3.8359375 16.1953125 -6 16 C-8 14 -8 14 -8.25 11 C-8 8 -8 8 -6 6 C-2.875 6.375 -2.875 6.375 0 7 C0 4.69 0 2.38 0 0 Z " fill="#2FA6EB" transform="translate(153,399)"/>
<path d="M0 0 C3.625 0.25 3.625 0.25 5.625 1.3125 C7.25878851 4.47796524 6.47767564 6.90020286 5.625 10.25 C2.625 12.25 2.625 12.25 -0.4375 12.0625 C-3.375 11.25 -3.375 11.25 -5.375 8.25 C-4.69376607 0.34768638 -4.69376607 0.34768638 0 0 Z " fill="#035585" transform="translate(277.375,354.75)"/>
<path d="M0 0 C3.5 0.25 3.5 0.25 5.5 2.25 C6.05416667 8.34583333 6.05416667 8.34583333 4.3125 11.1875 C1.79445572 12.66359492 0.37523324 12.74089348 -2.5 12.25 C-4.875 10.625 -4.875 10.625 -6.5 8.25 C-6.28905704 2.97642592 -5.62149309 0.40153522 0 0 Z " fill="#035585" transform="translate(144.5,336.75)"/>
<path d="M0 0 C8 0 8 0 10.0625 1.125 C11.46771358 3.93542716 10.72549141 6.03208058 10 9 C7.69 9.33 5.38 9.66 3 10 C3 11.98 3 13.96 3 16 C2.01 16 1.02 16 0 16 C0 10.72 0 5.44 0 0 Z " fill="#2FA6EB" transform="translate(104,399)"/>
<path d="M0 0 C3.94330793 1.59034353 6.58522906 4.32227859 9.5 7.3125 C9.97308594 7.78623047 10.44617188 8.25996094 10.93359375 8.74804688 C13.83106443 11.68163561 16.59619347 14.64611756 19 18 C18.75 20.3125 18.75 20.3125 18 22 C14.27102539 20.48141305 12.23613425 18.2734186 9.625 15.25 C6.98239412 12.21362834 4.34941582 9.33533217 1.375 6.625 C0.59125 5.75875 -0.1925 4.8925 -1 4 C-0.6484375 1.8359375 -0.6484375 1.8359375 0 0 Z " fill="#00EDEE" transform="translate(306,120)"/>
<path d="M0 0 C6.21027647 0.56262826 11.62830173 2.00166779 17.5 4.0625 C18.32242187 4.34416016 19.14484375 4.62582031 19.9921875 4.91601562 C21.99717343 5.60377243 23.99893723 6.30091076 26 7 C26 8.32 26 9.64 26 11 C21.69898463 10.37263385 17.70258597 9.37957417 13.5625 8.0625 C9.05621508 6.64461859 4.5499874 5.26976393 0 4 C0 2.68 0 1.36 0 0 Z " fill="#00EAEB" transform="translate(262,101)"/>
<path d="M0 0 C0.99 0 1.98 0 3 0 C1.94224692 8.49224617 -5.72403611 14.910289 -11.45703125 20.8203125 C-13 22 -13 22 -16 22 C-15.49663569 17.82926715 -14.47224557 16.04828364 -11.375 13.25 C-7.59053512 9.68974938 -4.55043061 5.91652001 -1.54296875 1.6875 C-1.03378906 1.130625 -0.52460938 0.57375 0 0 Z " fill="#00ECED" transform="translate(324,239)"/>
<path d="M0 0 C0.99 0 1.98 0 3 0 C3.65161012 1.87300025 4.29602195 3.7485055 4.9375 5.625 C5.47697266 7.19121094 5.47697266 7.19121094 6.02734375 8.7890625 C7.45634718 13.50649551 8.13709472 17.95174857 8.0625 22.875 C8.05347656 23.65617187 8.04445313 24.43734375 8.03515625 25.2421875 C8.02355469 25.82226562 8.01195312 26.40234375 8 27 C6.68 26.67 5.36 26.34 4 26 C3.89042969 25.24976563 3.78085937 24.49953125 3.66796875 23.7265625 C2.72744891 17.65523933 1.52808182 11.95663076 -0.51171875 6.15625 C-1.06019965 3.73415834 -0.78834294 2.32799258 0 0 Z " fill="#00EBED" transform="translate(333,159)"/>
<path d="M0 0 C3.96032845 1.58413138 6.54605078 4.35230206 9.4375 7.375 C12.12352635 10.16161264 14.7557208 12.81436121 17.84765625 15.1640625 C18.55792969 15.76992188 19.26820313 16.37578125 20 17 C20 17.99 20 18.98 20 20 C15.0218368 19.60578081 12.36640919 17.02152113 8.9375 13.6875 C8.42123047 13.20087891 7.90496094 12.71425781 7.37304688 12.21289062 C5.90302325 10.82151795 4.45105888 9.41113979 3 8 C2.21238281 7.26910156 1.42476562 6.53820312 0.61328125 5.78515625 C0.08089844 5.19605469 -0.45148438 4.60695312 -1 4 C-0.75 1.75 -0.75 1.75 0 0 Z " fill="#00EEEF" transform="translate(180,247)"/>
<path d="M0 0 C0.33 0.66 0.66 1.32 1 2 C0.67 2.66 0.34 3.32 0 4 C-2.32156597 4.40729228 -4.6568787 4.74438677 -7 5 C-7.67958603 7.39719432 -7.67958603 7.39719432 -8 10 C-6.10244856 12.34973818 -6.10244856 12.34973818 -2.875 12.125 C-1.451875 12.063125 -1.451875 12.063125 0 12 C0.33 12.99 0.66 13.98 1 15 C0 16 0 16 -3.75 16.375 C-7.21263482 16.31884917 -8.01872835 15.98738703 -11.0625 13.9375 C-13 11 -13 11 -13.0625 7.4375 C-10.71960527 -0.14245355 -7.23741927 -0.48249462 0 0 Z " fill="#32ACF3" transform="translate(261,399)"/>
<path d="M0 0 C3.63 0 7.26 0 11 0 C11 3.3 11 6.6 11 10 C7.37 10 3.74 10 0 10 C0 6.7 0 3.4 0 0 Z " fill="#242F3D" transform="translate(277,175)"/>
<path d="M0 0 C3.3 0 6.6 0 10 0 C10 3.63 10 7.26 10 11 C6.7 11 3.4 11 0 11 C0 7.37 0 3.74 0 0 Z " fill="#14202E" transform="translate(241,174)"/>
<path d="M0 0 C1.134375 0.27714844 2.26875 0.55429687 3.4375 0.83984375 C4.95827848 1.20595709 6.47911495 1.57182963 8 1.9375 C8.74378906 2.11990234 9.48757812 2.30230469 10.25390625 2.49023438 C15.1614276 3.66377209 19.98254788 4.45834324 25 5 C25.33 6.32 25.66 7.64 26 9 C17.26779216 9.62372913 6.91064707 7.95532354 -1 4 C-0.67 2.68 -0.34 1.36 0 0 Z " fill="#00EBEC" transform="translate(219,274)"/>
<path d="M0 0 C0.99 0.33 1.98 0.66 3 1 C1.97626688 3.83032098 1.23328498 4.86246065 -1.3984375 6.4140625 C-8.54537771 9.32161035 -15.33650124 11.08961983 -23 12 C-23 10.68 -23 9.36 -23 8 C-22.37432129 7.79318604 -21.74864258 7.58637207 -21.10400391 7.37329102 C-18.27714946 6.43792318 -15.45106812 5.50024079 -12.625 4.5625 C-11.64015625 4.23701172 -10.6553125 3.91152344 -9.640625 3.57617188 C-8.69960938 3.26357422 -7.75859375 2.95097656 -6.7890625 2.62890625 C-5.91975098 2.34088135 -5.05043945 2.05285645 -4.15478516 1.75610352 C-1.98876078 1.04681418 -1.98876078 1.04681418 0 0 Z " fill="#00EBEC" transform="translate(289,270)"/>
<path d="M0 0 C3.3 0 6.6 0 10 0 C10 3.63 10 7.26 10 11 C7.03 11 4.06 11 1 11 C-0.28317892 7.15046324 -0.06643637 4.05261865 0 0 Z " fill="#192533" transform="translate(241,198)"/>
<path d="M0 0 C2.27864583 0.06510417 4.55729167 0.13020833 6.8359375 0.1953125 C6.8359375 3.4953125 6.8359375 6.7953125 6.8359375 10.1953125 C0 10.390625 0 10.390625 -2.1640625 10.1953125 C-4.1640625 8.1953125 -4.1640625 8.1953125 -4.4140625 5.1953125 C-4.1227272 1.6992889 -3.65676751 0.33003317 0 0 Z " fill="#2DA2E6" transform="translate(220.1640625,404.8046875)"/>
<path d="M0 0 C3.3 0 6.6 0 10 0 C10 3.3 10 6.6 10 10 C6.7 10 3.4 10 0 10 C0 6.7 0 3.4 0 0 Z " fill="#0C1928" transform="translate(265,175)"/>
<path d="M0 0 C3.3 0 6.6 0 10 0 C10 3.3 10 6.6 10 10 C6.7 10 3.4 10 0 10 C0 6.7 0 3.4 0 0 Z " fill="#081524" transform="translate(253,175)"/>
<path d="M0 0 C6.46153846 0.46153846 6.46153846 0.46153846 9 3 C8.67028521 6.29714793 8.3773161 7.6226839 6 10 C2.5 10.3125 2.5 10.3125 -1 10 C-3 7 -3 7 -2.75 4.4375 C-2 2 -2 2 0 0 Z " fill="#2B9FE3" transform="translate(268,405)"/>
<path d="M0 0 C6.46153846 0.46153846 6.46153846 0.46153846 9 3 C8.67028521 6.29714793 8.3773161 7.6226839 6 10 C2.5 10.3125 2.5 10.3125 -1 10 C-3 7 -3 7 -2.75 4.4375 C-2 2 -2 2 0 0 Z " fill="#2B9FE3" transform="translate(133,405)"/>
<path d="M0 0 C4.31795368 0.59971579 7.48473113 2.1470067 11.25 4.3125 C12.83554687 5.20388672 12.83554687 5.20388672 14.453125 6.11328125 C17 8 17 8 17.859375 10.23046875 C17.90578125 10.81441406 17.9521875 11.39835938 18 12 C14.25582421 12 13.36225593 11.92400327 10.328125 10.25 C9.66425781 9.8890625 9.00039063 9.528125 8.31640625 9.15625 C7.63449219 8.7746875 6.95257813 8.393125 6.25 8 C5.20392578 7.42765625 5.20392578 7.42765625 4.13671875 6.84375 C2.42037385 5.90328704 0.70962384 4.95262622 -1 4 C-0.67 2.68 -0.34 1.36 0 0 Z " fill="#00EDEE" transform="translate(275,123)"/>
<path d="M0 0 C10.47822996 -0.36981988 10.47822996 -0.36981988 12.82421875 1.29296875 C14.83647919 4.21442328 14.4868833 6.59181689 14 10 C11.60259082 11.95578117 10.12413392 13 7 13 C7 14.98 7 16.96 7 19 C4.69 19 2.38 19 0 19 C0 12.73 0 6.46 0 0 Z M2 1 C2 6.28 2 11.56 2 17 C2.99 17 3.98 17 5 17 C5 15.02 5 13.04 5 11 C8.465 10.505 8.465 10.505 12 10 C13.0966025 5.98375387 13.0966025 5.98375387 12.0625 2.125 C9.22103395 0.36153049 9.22103395 0.36153049 2 1 Z " fill="#055788" transform="translate(102,398)"/>
<path d="M0 0 C1.32 0 2.64 0 4 0 C5.71121754 4.52150975 6.35223612 8.55617153 6.625 13.375 C6.69976562 14.62023437 6.77453125 15.86546875 6.8515625 17.1484375 C6.90054687 18.08945313 6.94953125 19.03046875 7 20 C5.0625 20.5625 5.0625 20.5625 3 21 C1.42679728 19.42679728 1.67057664 17.70811236 1.46484375 15.52734375 C1.37783203 14.62822266 1.29082031 13.72910156 1.20117188 12.80273438 C1.11416016 11.85720703 1.02714844 10.91167969 0.9375 9.9375 C0.84662109 8.98810547 0.75574219 8.03871094 0.66210938 7.06054688 C0.43743502 4.70737865 0.21691818 2.35389381 0 0 Z " fill="#00E7E9" transform="translate(317,171)"/>
<path d="M0 0 C1.32 0 2.64 0 4 0 C3.34 6.6 2.68 13.2 2 20 C0.68 20.33 -0.64 20.66 -2 21 C-2.05420701 18.43721301 -2.09377007 15.87558517 -2.125 13.3125 C-2.15013672 12.2306543 -2.15013672 12.2306543 -2.17578125 11.12695312 C-2.21391569 6.95123219 -1.8789919 3.7505862 0 0 Z " fill="#00EBEC" transform="translate(179,174)"/>
<path d="M0 0 C0.99 0 1.98 0 3 0 C4.69637568 2.03267472 6.16059519 3.99797862 7.625 6.1875 C8.03234375 6.76564453 8.4396875 7.34378906 8.859375 7.93945312 C11.11813425 11.24905899 12.56279524 13.99731502 13 18 C11.68 18 10.36 18 9 18 C6.9296875 15.55078125 6.9296875 15.55078125 4.875 12.3125 C4.19179688 11.25675781 3.50859375 10.20101562 2.8046875 9.11328125 C1.25485405 6.43965082 0.04389685 3.90031134 -1 1 C-0.67 0.67 -0.34 0.34 0 0 Z " fill="#00EEEF" transform="translate(303,143)"/>
<path d="M0 0 C2.0625 0.4375 2.0625 0.4375 4 1 C2.40183295 4.38907788 0.46852262 7.478823 -1.5625 10.625 C-3.91828365 14.23450102 -3.91828365 14.23450102 -6 18 C-7.32 18 -8.64 18 -10 18 C-9.52382405 12.97783177 -8.05066382 10.16970581 -5 6.1875 C-4.278125 5.23230469 -3.55625 4.27710938 -2.8125 3.29296875 C-1 1 -1 1 0 0 Z " fill="#00F1F2" transform="translate(195,143)"/>
<path d="M0 0 C3.3 0 6.6 0 10 0 C10 2.97 10 5.94 10 9 C6.7 9 3.4 9 0 9 C0 6.03 0 3.06 0 0 Z " fill="#061323" transform="translate(265,187)"/>
<path d="M0 0 C3.3 0 6.6 0 10 0 C10 2.97 10 5.94 10 9 C6.7 9 3.4 9 0 9 C0 6.03 0 3.06 0 0 Z " fill="#020F1F" transform="translate(253,187)"/>
<path d="M0 0 C3.3 0 6.6 0 10 0 C10 2.97 10 5.94 10 9 C6.7 9 3.4 9 0 9 C0 6.03 0 3.06 0 0 Z " fill="#051222" transform="translate(241,187)"/>
<path d="M0 0 C0 0.99 0 1.98 0 3 C-0.99902344 3.49371094 -1.99804688 3.98742187 -3.02734375 4.49609375 C-4.3307814 5.14312395 -5.63416398 5.79026511 -6.9375 6.4375 C-7.59685547 6.76298828 -8.25621094 7.08847656 -8.93554688 7.42382812 C-12.18290035 8.89111346 -12.18290035 8.89111346 -15 11 C-16.66617115 11.04063832 -18.33388095 11.042721 -20 11 C-20 10.01 -20 9.02 -20 8 C-18.0234375 6.5 -18.0234375 6.5 -15.375 5 C-14.46234375 4.48308594 -13.5496875 3.96617188 -12.609375 3.43359375 C-11.74828125 2.96050781 -10.8871875 2.48742187 -10 2 C-8.88625 1.360625 -7.7725 0.72125 -6.625 0.0625 C-3.82828169 -1.06950503 -2.74214775 -1.16013943 0 0 Z " fill="#00ECED" transform="translate(227,124)"/>
<path d="M0 0 C0.99 0.33 1.98 0.66 3 1 C4.21017077 3.44095272 5.22668775 5.77643012 6.1875 8.3125 C6.46013672 8.98990234 6.73277344 9.66730469 7.01367188 10.36523438 C8.36276189 13.82417946 9 16.24019771 9 20 C7.68 20 6.36 20 5 20 C-0.72761228 7.12872369 -0.72761228 7.12872369 -1 1 C-0.67 0.67 -0.34 0.34 0 0 Z " fill="#00F3F4" transform="translate(180,208)"/>
<path d="M0 0 C3.63 0 7.26 0 11 0 C11 2.64 11 5.28 11 8 C7.37 8 3.74 8 0 8 C0 5.36 0 2.72 0 0 Z " fill="#293441" transform="translate(277,198)"/>
<path d="M0 0 C3.3 0 6.6 0 10 0 C10 3.63 10 7.26 10 11 C8.02 11 6.04 11 4 11 C3.32880451 9.5437455 2.66318193 8.08492133 2 6.625 C1.62875 5.81289062 1.2575 5.00078125 0.875 4.1640625 C0 2 0 2 0 0 Z " fill="#192533" transform="translate(229,174)"/>
<path d="M0 0 C2.5625 0.3125 2.5625 0.3125 4.4375 1.4375 C5.5625 3.3125 5.5625 3.3125 5.3125 6.4375 C4.5625 9.3125 4.5625 9.3125 3.5625 10.3125 C-1.69200902 10.76941383 -1.69200902 10.76941383 -4.375 9.125 C-5.4375 7.3125 -5.4375 7.3125 -5.25 4.75 C-4.18108204 1.54324612 -3.41484064 0.43780008 0 0 Z " fill="#299CDE" transform="translate(391.4375,404.6875)"/>
<path d="M0 0 C3.3 0 6.6 0 10 0 C10 2.64 10 5.28 10 8 C6.7 8.33 3.4 8.66 0 9 C0 6.03 0 3.06 0 0 Z " fill="#020F1F" transform="translate(253,199)"/>
<path d="M0 0 C6.6 0 13.2 0 20 0 C20.33 1.32 20.66 2.64 21 4 C14.07 4 7.14 4 0 4 C0 2.68 0 1.36 0 0 Z " fill="#00F6F7" transform="translate(240,119)"/>
<path d="M0 0 C2.5625 0.3125 2.5625 0.3125 4.375 1.625 C5.5625 3.3125 5.5625 3.3125 5.5625 6.3125 C4.2425 6.6425 2.9225 6.9725 1.5625 7.3125 C2.5525 7.3125 3.5425 7.3125 4.5625 7.3125 C4.2325 8.3025 3.9025 9.2925 3.5625 10.3125 C0.1875 10.5 0.1875 10.5 -3.4375 10.3125 C-5.4375 7.3125 -5.4375 7.3125 -5.1875 4.75 C-4.19253762 1.51637226 -3.41216263 0.43745675 0 0 Z " fill="#2CA1E5" transform="translate(351.4375,404.6875)"/>
<path d="M0 0 C2.97 0 5.94 0 9 0 C9 2.97 9 5.94 9 9 C6.03 9 3.06 9 0 9 C0 6.03 0 3.06 0 0 Z " fill="#020F1F" transform="translate(278,187)"/>
<path d="M0 0 C3.3 0 6.6 0 10 0 C10 2.64 10 5.28 10 8 C6.7 8 3.4 8 0 8 C0 5.36 0 2.72 0 0 Z " fill="#0B1727" transform="translate(265,199)"/>
<path d="M0 0 C6.8359375 -0.1953125 6.8359375 -0.1953125 9 0 C11 2 11 2 11.1953125 3.9453125 C11.13020833 5.96354167 11.06510417 7.98177083 11 10 C10.01 10 9.02 10 8 10 C7.67 8.02 7.34 6.04 7 4 C6.01 3.67 5.02 3.34 4 3 C4 5.31 4 7.62 4 10 C2.68 10 1.36 10 0 10 C0 6.7 0 3.4 0 0 Z " fill="#2FA6EC" transform="translate(360,405)"/>
<path d="M0 0 C9.625 -0.25 9.625 -0.25 13 2 C13.41620943 5.69593971 13.13007474 9.27119087 13 13 C8.71 13 4.42 13 0 13 C0 8.71 0 4.42 0 0 Z M1 2 C1 5.3 1 8.6 1 12 C2.32 12 3.64 12 5 12 C5 9.69 5 7.38 5 5 C5.99 5.33 6.98 5.66 8 6 C8.33 7.98 8.66 9.96 9 12 C9.99 12 10.98 12 12 12 C12.04125 10.72125 12.0825 9.4425 12.125 8.125 C12.15980469 7.04605469 12.15980469 7.04605469 12.1953125 5.9453125 C12.18331689 3.76136355 12.18331689 3.76136355 10 2 C6.98173347 1.72759327 4.03629378 1.91324875 1 2 Z " fill="#02517F" transform="translate(359,403)"/>
<path d="M0 0 C1.875 0.8125 1.875 0.8125 3.875 3.8125 C4.535 3.1525 5.195 2.4925 5.875 1.8125 C5.125 6.5625 5.125 6.5625 2.875 8.8125 C-0.625 9.0625 -0.625 9.0625 -4.125 8.8125 C-6.125 6.8125 -6.125 6.8125 -6.25 4.1875 C-6.20875 3.40375 -6.1675 2.62 -6.125 1.8125 C-3.90523089 0.46478304 -2.62352224 -0.23148726 0 0 Z " fill="#E6E8E9" transform="translate(233.125,237.1875)"/>
<path d="M0 0 C0.825 0.226875 1.65 0.45375 2.5 0.6875 C3.49 0.6875 4.48 0.6875 5.5 0.6875 C5.24438677 3.0306213 4.90729228 5.36593403 4.5 7.6875 C1.76094655 9.05702673 -0.47087332 8.81371361 -3.5 8.6875 C-4.16 8.3575 -4.82 8.0275 -5.5 7.6875 C-5.72732116 4.88387237 -5.84081872 3.22563483 -4.3125 0.8125 C-2.5 -0.3125 -2.5 -0.3125 0 0 Z " fill="#E7E9EA" transform="translate(290.5,237.3125)"/>
<path d="M0 0 C1.98 0.495 1.98 0.495 4 1 C4 5.62 4 10.24 4 15 C2.35 15.33 0.7 15.66 -1 16 C-1.02685095 13.52076199 -1.04676547 11.0418116 -1.0625 8.5625 C-1.07506836 7.50192383 -1.07506836 7.50192383 -1.08789062 6.41992188 C-1.09653588 4.61306441 -1.05220011 2.80612397 -1 1 C-0.67 0.67 -0.34 0.34 0 0 Z " fill="#1374AC" transform="translate(339,399)"/>
<path d="M0 0 C0.33 0.66 0.66 1.32 1 2 C-1.31 3.32 -3.62 4.64 -6 6 C-4.41037341 10.03520597 -2.71767682 14.01811282 -1 18 C-4.05665662 17.09126425 -5.72305703 16.32469175 -7.8125 13.875 C-9.46784539 9.86732169 -9.4889989 7.33113314 -9 3 C-6.33414773 -0.15952862 -4.00278474 -0.33356539 0 0 Z " fill="#011528" transform="translate(397,306)"/>
<path d="M0 0 C0.99 0 1.98 0 3 0 C3 2.31 3 4.62 3 7 C4.32 7 5.64 7 7 7 C7 4.69 7 2.38 7 0 C7.99 0 8.98 0 10 0 C10.02689216 1.47906892 10.04634621 2.95827483 10.0625 4.4375 C10.07410156 5.26121094 10.08570313 6.08492188 10.09765625 6.93359375 C10 9 10 9 9 10 C7.1875 10.1328125 7.1875 10.1328125 5 10.125 C4.278125 10.12757813 3.55625 10.13015625 2.8125 10.1328125 C1 10 1 10 0 9 C-0.07179964 7.48071962 -0.08392007 5.95832518 -0.0625 4.4375 C-0.05347656 3.61121094 -0.04445312 2.78492188 -0.03515625 1.93359375 C-0.02355469 1.29550781 -0.01195312 0.65742188 0 0 Z " fill="#34B0F7" transform="translate(161,405)"/>
<path d="M0 0 C2.5 0.25 2.5 0.25 4.5 2.25 C4.5 3.24 4.5 4.23 4.5 5.25 C2.52 5.25 0.54 5.25 -1.5 5.25 C-1.17 5.91 -0.84 6.57 -0.5 7.25 C1.15 7.25 2.8 7.25 4.5 7.25 C4.17 8.24 3.84 9.23 3.5 10.25 C-1.91139241 10.61075949 -1.91139241 10.61075949 -4.4375 9.0625 C-5.5 7.25 -5.5 7.25 -5.3125 4.6875 C-4.22827241 1.43481722 -3.47807945 0.34780795 0 0 Z " fill="#2FA6EC" transform="translate(314.5,404.75)"/>
<path d="M0 0 C2.64 0 5.28 0 8 0 C8.125 6.75 8.125 6.75 7 9 C4.69 9 2.38 9 0 9 C0 6.03 0 3.06 0 0 Z " fill="#0F1B2A" transform="translate(290,176)"/>
<path d="M0 0 C1.32 0 2.64 0 4 0 C4 1.32 4 2.64 4 4 C4.66 4 5.32 4 6 4 C6 4.99 6 5.98 6 7 C5.34 7 4.68 7 4 7 C4 8.32 4 9.64 4 11 C4.66 11 5.32 11 6 11 C6 11.99 6 12.98 6 14 C4.35 14 2.7 14 1 14 C0.63495397 12.41913952 0.28339494 10.83516093 -0.0625 9.25 C-0.25972656 8.36828125 -0.45695313 7.4865625 -0.66015625 6.578125 C-0.99825872 4.01320972 -0.81158635 2.42908361 0 0 Z " fill="#2EA5EA" transform="translate(232,401)"/>
<path d="M0 0 C6.0546875 -0.1953125 6.0546875 -0.1953125 8 0 C10 2 10 2 10.1953125 3.9453125 C10.13020833 5.96354167 10.06510417 7.98177083 10 10 C9.01 10 8.02 10 7 10 C7 7.69 7 5.38 7 3 C5.68 3 4.36 3 3 3 C3 5.31 3 7.62 3 10 C2.01 10 1.02 10 0 10 C0 6.7 0 3.4 0 0 Z " fill="#36B3FB" transform="translate(324,405)"/>
<path d="M0 0 C6.0546875 -0.1953125 6.0546875 -0.1953125 8 0 C10 2 10 2 10.1953125 3.9453125 C10.13020833 5.96354167 10.06510417 7.98177083 10 10 C9.01 10 8.02 10 7 10 C7 7.69 7 5.38 7 3 C5.68 3 4.36 3 3 3 C3 5.31 3 7.62 3 10 C2.01 10 1.02 10 0 10 C0 6.7 0 3.4 0 0 Z " fill="#36B3FB" transform="translate(281,405)"/>
<path d="M0 0 C1.32 0 2.64 0 4 0 C4.66 1.32 5.32 2.64 6 4 C6.66 2.68 7.32 1.36 8 0 C9.32 0 10.64 0 12 0 C10.8905928 3.48670834 9.73662334 6.77484237 8 10 C6.25 9.9375 6.25 9.9375 4 9 C1.99159505 6.29950956 0 3.44873267 0 0 Z " fill="#33ADF4" transform="translate(294,405)"/>
<path d="M0 0 C0.33 0 0.66 0 1 0 C1 2.97 1 5.94 1 9 C4.63 9 8.26 9 12 9 C12 6.03 12 3.06 12 0 C12.33 0 12.66 0 13 0 C13 2.97 13 5.94 13 9 C15.64 9 18.28 9 21 9 C21 9.33 21 9.66 21 10 C18.69 10.33 16.38 10.66 14 11 C13.67 13.97 13.34 16.94 13 20 C12.67 20 12.34 20 12 20 C12 16.7 12 13.4 12 10 C8.37 10 4.74 10 1 10 C1 13.3 1 16.6 1 20 C0.67 20 0.34 20 0 20 C-0.83854735 13.09811029 -1.01593448 6.88577812 0 0 Z " fill="#FEFEFE" transform="translate(276,176)"/>
<path d="M0 0 C2.5 0.125 2.5 0.125 3.5 1.125 C3.76372085 3.39006912 3.96103223 5.66303273 4.125 7.9375 C4.22039062 9.18144531 4.31578125 10.42539062 4.4140625 11.70703125 C4.48482475 14.52143873 4.38806927 16.49392909 3.5 19.125 C1.19 19.125 -1.12 19.125 -3.5 19.125 C-3.52683987 16.14577407 -3.54676037 13.16678705 -3.5625 10.1875 C-3.57087891 9.33736328 -3.57925781 8.48722656 -3.58789062 7.61132812 C-3.59111328 6.80244141 -3.59433594 5.99355469 -3.59765625 5.16015625 C-3.60289307 4.4112915 -3.60812988 3.66242676 -3.61352539 2.89086914 C-3.43038747 0.04218825 -2.85084039 0.14254202 0 0 Z M-1.5 1.125 C-2.35298376 4.79887495 -2.60789471 8.1697393 -2.5625 11.9375 C-2.55347656 12.91332031 -2.54445313 13.88914062 -2.53515625 14.89453125 C-2.52355469 15.63058594 -2.51195312 16.36664063 -2.5 17.125 C-0.85 16.795 0.8 16.465 2.5 16.125 C2.5 11.505 2.5 6.885 2.5 2.125 C1.18 1.795 -0.14 1.465 -1.5 1.125 Z " fill="#004874" transform="translate(340.5,397.875)"/>
<path d="M0 0 C1.2065625 0.0309375 1.2065625 0.0309375 2.4375 0.0625 C2.4375 0.7225 2.4375 1.3825 2.4375 2.0625 C1.4475 2.0625 0.4575 2.0625 -0.5625 2.0625 C-0.5625 2.7225 -0.5625 3.3825 -0.5625 4.0625 C0.7575 4.3925 2.0775 4.7225 3.4375 5.0625 C3.1075 6.7125 2.7775 8.3625 2.4375 10.0625 C0.1275 10.0625 -2.1825 10.0625 -4.5625 10.0625 C-4.5625 9.0725 -4.5625 8.0825 -4.5625 7.0625 C-3.2425 7.3925 -1.9225 7.7225 -0.5625 8.0625 C-0.5625 7.4025 -0.5625 6.7425 -0.5625 6.0625 C-1.8825 5.7325 -3.2025 5.4025 -4.5625 5.0625 C-3.43829114 0.08386076 -3.43829114 0.08386076 0 0 Z " fill="#32ACF3" transform="translate(201.5625,404.9375)"/>
<path d="M0 0 C0.33 0 0.66 0 1 0 C1 3.3 1 6.6 1 10 C1.99 10 2.98 10 4 10 C4 7.69 4 5.38 4 3 C5.32 3 6.64 3 8 3 C8 5.31 8 7.62 8 10 C8.99 10 9.98 10 11 10 C10.67 7.03 10.34 4.06 10 1 C10.66 1 11.32 1 12 1 C12 4.3 12 7.6 12 11 C7.71 11 3.42 11 -1 11 C-0.67 7.37 -0.34 3.74 0 0 Z " fill="#075E91" transform="translate(280,405)"/>
<path d="M0 0 C0 0.99 0 1.98 0 3 C-1.32 3.33 -2.64 3.66 -4 4 C-4 4.66 -4 5.32 -4 6 C-2.68 6.33 -1.36 6.66 0 7 C0 7.99 0 8.98 0 10 C-2.875 10.125 -2.875 10.125 -6 10 C-8 8 -8 8 -8.3125 5 C-8.209375 4.01 -8.10625 3.02 -8 2 C-4.77208445 -0.1519437 -3.71599191 -0.20086443 0 0 Z " fill="#32ABF2" transform="translate(383,405)"/>
<path d="M0 0 C0 3.96 0 7.92 0 12 C-1.65 12 -3.3 12 -5 12 C-4.67 11.34 -4.34 10.68 -4 10 C-3.01 10.33 -2.02 10.66 -1 11 C-1 7.7 -1 4.4 -1 1 C-6.31925322 1.05754492 -6.31925322 1.05754492 -11 3 C-11.04080783 4.99958364 -11.04254356 7.00045254 -11 9 C-8.525 9.99 -8.525 9.99 -6 11 C-6 11.33 -6 11.66 -6 12 C-8.875 12.1875 -8.875 12.1875 -12 12 C-14.31282587 8.53076119 -14.42478586 7.07794425 -14 3 C-10.67671168 -1.78419694 -5.22332047 -0.18435249 0 0 Z " fill="#045584" transform="translate(228,404)"/>
<path d="M0 0 C0.99 0 1.98 0 3 0 C3 0.99 3 1.98 3 3 C3.66 3 4.32 3 5 3 C5 3.99 5 4.98 5 6 C4.34 6 3.68 6 3 6 C3 7.32 3 8.64 3 10 C3.99 10.33 4.98 10.66 6 11 C6 11.66 6 12.32 6 13 C4.35 13 2.7 13 1 13 C-0.6290678 8.20862412 -1.20577428 4.94367454 0 0 Z " fill="#34B0F8" transform="translate(188,402)"/>
<path d="M0 0 C1.98 0 3.96 0 6 0 C6 2.97 6 5.94 6 9 C4.02 9 2.04 9 0 9 C0 6.03 0 3.06 0 0 Z " fill="#031020" transform="translate(290,187)"/>
<path d="M0 0 C0 0.99 0 1.98 0 3 C-1.32 3 -2.64 3 -4 3 C-4 4.32 -4 5.64 -4 7 C-2.68 7 -1.36 7 0 7 C0 7.99 0 8.98 0 10 C-2.31 9.67 -4.62 9.34 -7 9 C-8.33157895 3.55263158 -8.33157895 3.55263158 -6.875 1.125 C-4.46277487 -0.32233508 -2.7648665 -0.22417836 0 0 Z " fill="#33ADF4" transform="translate(183,405)"/>
<path d="M0 0 C0.33 0 0.66 0 1 0 C1 3.3 1 6.6 1 10 C1.99 10 2.98 10 4 10 C4 7.69 4 5.38 4 3 C5.32 3 6.64 3 8 3 C8 5.31 8 7.62 8 10 C8.99 10 9.98 10 11 10 C11 7.69 11 5.38 11 3 C11.33 3 11.66 3 12 3 C12 5.64 12 8.28 12 11 C7.71 11 3.42 11 -1 11 C-0.67 7.37 -0.34 3.74 0 0 Z " fill="#075E91" transform="translate(323,405)"/>
<path d="M0 0 C0.33 0 0.66 0 1 0 C1 3.3 1 6.6 1 10 C4.63 10 8.26 10 12 10 C12 10.33 12 10.66 12 11 C8.7 11.33 5.4 11.66 2 12 C1.67 14.97 1.34 17.94 1 21 C0.67 21 0.34 21 0 21 C0 17.7 0 14.4 0 11 C-1.65 11 -3.3 11 -5 11 C-5 10.67 -5 10.34 -5 10 C-3.35 10 -1.7 10 0 10 C0 6.7 0 3.4 0 0 Z M12 0 C12.33 0 12.66 0 13 0 C13 3.3 13 6.6 13 10 C12.67 10 12.34 10 12 10 C12 6.7 12 3.4 12 0 Z " fill="#FEFEFE" transform="translate(239,175)"/>
<path d="M0 0 C2.375 1 2.375 1 4 2 C3.39816251 4.02045442 2.72693904 6.02111039 2 8 C-0.95664519 9.4783226 -3.74229737 9.06032783 -7 9 C-6.67 8.01 -6.34 7.02 -6 6 C-3.69 6 -1.38 6 1 6 C1 5.01 1 4.02 1 3 C-2.63 3 -6.26 3 -10 3 C-5.7751311 -0.16865168 -4.9732598 -0.5180479 0 0 Z " fill="#00456F" transform="translate(260,397)"/>
<path d="M0 0 C0.33 0.99 0.66 1.98 1 3 C1.66 3 2.32 3 3 3 C3.12375 4.423125 3.12375 4.423125 3.25 5.875 C3.65074923 9.10461791 3.65074923 9.10461791 6.0625 10.375 C6.701875 10.58125 7.34125 10.7875 8 11 C5.75 11.25 5.75 11.25 3 11 C1.6256709 9.70896357 0.29103643 8.3743291 -1 7 C-3.1381966 6.2127322 -3.1381966 6.2127322 -5 6 C-3.86695008 2.60085025 -2.87481525 1.94745549 0 0 Z " fill="#014F7E" transform="translate(185,405)"/>
<path d="M0 0 C2.64 0 5.28 0 8 0 C7.67 0.99 7.34 1.98 7 3 C6.01 3.33 5.02 3.66 4 4 C3.67 5.98 3.34 7.96 3 10 C2.01 10 1.02 10 0 10 C0 6.7 0 3.4 0 0 Z " fill="#35B1F9" transform="translate(119,405)"/>
<path d="M0 0 C1.98 0 3.96 0 6 0 C6 6.27 6 12.54 6 19 C4.35 19 2.7 19 1 19 C1.33 18.34 1.66 17.68 2 17 C2.99 17.33 3.98 17.66 5 18 C5 12.72 5 7.44 5 2 C4.01 2 3.02 2 2 2 C2 4.31 2 6.62 2 9 C1.34 8.67 0.68 8.34 0 8 C0 5.36 0 2.72 0 0 Z " fill="#065C8F" transform="translate(151,397)"/>
<path d="M0 0 C1.67542976 0.28604898 3.34385343 0.61781233 5 1 C5 2.65 5 4.3 5 6 C3.34385343 6.38218767 1.67542976 6.71395102 0 7 C-1 6 -1 6 -1.125 3.5 C-1 1 -1 1 0 0 Z " fill="#5D6670" transform="translate(288,237)"/>
<path d="M0 0 C2.0625 0.4375 2.0625 0.4375 4 1 C4.33 2.65 4.66 4.3 5 6 C2.625 6.625 2.625 6.625 0 7 C-0.66 6.34 -1.32 5.68 -2 5 C-1.46428571 1.46428571 -1.46428571 1.46428571 0 0 Z " fill="#5C646E" transform="translate(231,237)"/>
<path d="M0 0 C4.875 0.875 4.875 0.875 6 2 C6.14115161 4.67058851 6.04247107 7.32432238 6 10 C5.01 10 4.02 10 3 10 C2.87625 9.030625 2.7525 8.06125 2.625 7.0625 C2.41875 6.051875 2.2125 5.04125 2 4 C1.34 3.67 0.68 3.34 0 3 C0 2.01 0 1.02 0 0 Z " fill="#34AFF7" transform="translate(365,405)"/>
<path d="M0 0 C2.1640625 -0.29296875 2.1640625 -0.29296875 4.625 -0.1875 C5.44226563 -0.16042969 6.25953125 -0.13335937 7.1015625 -0.10546875 C8.04128906 -0.05326172 8.04128906 -0.05326172 9 0 C9 0.99 9 1.98 9 3 C7.88625 2.79375 6.7725 2.5875 5.625 2.375 C4.42875 2.25125 3.2325 2.1275 2 2 C1.34 2.66 0.68 3.32 0 4 C0.32198966 7.09926819 0.32198966 7.09926819 1 10 C2.65 10.33 4.3 10.66 6 11 C6 11.33 6 11.66 6 12 C3.125 12.125 3.125 12.125 0 12 C-2 10 -2 10 -2.25 6.5625 C-2 3 -2 3 0 0 Z " fill="#045787" transform="translate(131,404)"/>
<path d="M0 0 C0.33 0.66 0.66 1.32 1 2 C1.66 2 2.32 2 3 2 C3 1.34 3 0.68 3 0 C4.98 0 6.96 0 9 0 C8.25 6.625 8.25 6.625 6 10 C5.34 9.67 4.68 9.34 4 9 C5.32 6.36 6.64 3.72 8 1 C6.68 1 5.36 1 4 1 C3.67 2.65 3.34 4.3 3 6 C1.5 4.6875 1.5 4.6875 0 3 C0 2.01 0 1.02 0 0 Z " fill="#05598A" transform="translate(298,404)"/>
<path d="M0 0 C6.0546875 -0.1953125 6.0546875 -0.1953125 8 0 C8.66 0.66 9.32 1.32 10 2 C9.625 4.625 9.625 4.625 9 7 C7.02 7.66 5.04 8.32 3 9 C2.67 8.01 2.34 7.02 2 6 C3.98 6 5.96 6 8 6 C7.43637698 3.95163118 7.43637698 3.95163118 6 2 C2.94091587 1.18415432 2.94091587 1.18415432 0 1 C0 0.67 0 0.34 0 0 Z " fill="#0C659A" transform="translate(311,404)"/>
<path d="M0 0 C0.33 1.32 0.66 2.64 1 4 C-1.97 3.67 -4.94 3.34 -8 3 C-7.67 2.01 -7.34 1.02 -7 0 C-4.3333581 -1.33332095 -2.83319697 -0.67102033 0 0 Z " fill="#065D8F" transform="translate(201,350)"/>
<path d="M0 0 C7 9.1 7 9.1 7 12 C4.12470182 10.71107323 1.94991702 9.50703617 0 7 C-1.29230769 2.58461538 -1.29230769 2.58461538 0 0 Z " fill="#01172B" transform="translate(93,311)"/>
<path d="M0 0 C0 0.33 0 0.66 0 1 C-2.64 1.33 -5.28 1.66 -8 2 C-8.33 4.97 -8.66 7.94 -9 11 C-9.33 11 -9.66 11 -10 11 C-10 7.7 -10 4.4 -10 1 C-13.3 1 -16.6 1 -20 1 C-20 0.67 -20 0.34 -20 0 C-13.14011227 -0.94870788 -6.85988773 -0.94870788 0 0 Z " fill="#FFFFFF" transform="translate(261,197)"/>
<path d="M0 0 C0.99 0 1.98 0 3 0 C3 3.3 3 6.6 3 10 C2.01 10 1.02 10 0 10 C0 6.7 0 3.4 0 0 Z " fill="#36B3FC" transform="translate(339,405)"/>
<path d="M0 0 C1.65 0 3.3 0 5 0 C5 1.98 5 3.96 5 6 C3.35 6 1.7 6 0 6 C0 4.02 0 2.04 0 0 Z " fill="#081524" transform="translate(290,199)"/>
<path d="M0 0 C1.65 0 3.3 0 5 0 C5 2.97 5 5.94 5 9 C4.34 9 3.68 9 3 9 C2.01 6.03 1.02 3.06 0 0 Z " fill="#2A3543" transform="translate(234,187)"/>
<path d="M0 0 C0.66 0.99 1.32 1.98 2 3 C1.37351562 2.90460938 0.74703125 2.80921875 0.1015625 2.7109375 C-0.71570313 2.60007812 -1.53296875 2.48921875 -2.375 2.375 C-3.59316406 2.20097656 -3.59316406 2.20097656 -4.8359375 2.0234375 C-5.55007813 2.01570313 -6.26421875 2.00796875 -7 2 C-7.66 2.66 -8.32 3.32 -9 4 C-8.67801034 7.09926819 -8.67801034 7.09926819 -8 10 C-8.99 9.67 -9.98 9.34 -11 9 C-11.35555556 3.66666667 -11.35555556 3.66666667 -10 1.125 C-6.62193105 -0.77516379 -3.83381731 -0.36512546 0 0 Z " fill="#045585" transform="translate(396,404)"/>
<path d="M0 0 C0.33 0 0.66 0 1 0 C1 3.3 1 6.6 1 10 C2.65 10 4.3 10 6 10 C6 10.33 6 10.66 6 11 C4.35 11.33 2.7 11.66 1 12 C0.67 13.98 0.34 15.96 0 18 C-0.33 18 -0.66 18 -1 18 C-1.87890625 11.84765625 -1.87890625 11.84765625 -2 10 C-1.67 9.67 -1.34 9.34 -1 9 C-0.76807135 7.48530552 -0.58784762 5.96245438 -0.4375 4.4375 C-0.35371094 3.61121094 -0.26992188 2.78492188 -0.18359375 1.93359375 C-0.12300781 1.29550781 -0.06242187 0.65742188 0 0 Z " fill="#E1E2E4" transform="translate(289,187)"/>
<path d="M0 0 C0.33 0 0.66 0 1 0 C1.12375 0.969375 1.2475 1.93875 1.375 2.9375 C1.58125 3.948125 1.7875 4.95875 2 6 C2.66 6.33 3.32 6.66 4 7 C3.67 7.66 3.34 8.32 3 9 C1.68 8.34 0.36 7.68 -1 7 C-1 6.34 -1 5.68 -1 5 C-2.32 4.67 -3.64 4.34 -5 4 C-4.67 3.34 -4.34 2.68 -4 2 C-3.01 2 -2.02 2 -1 2 C-0.67 1.34 -0.34 0.68 0 0 Z " fill="#003C62" transform="translate(384,407)"/>
<path d="M0 0 C1.65 0.33 3.3 0.66 5 1 C4.67 2.32 4.34 3.64 4 5 C2.35 4.67 0.7 4.34 -1 4 C-0.67 2.68 -0.34 1.36 0 0 Z " fill="#011427" transform="translate(276,358)"/>
<path d="M0 0 C1.98 0.495 1.98 0.495 4 1 C3.67 2.65 3.34 4.3 3 6 C1.68 5.67 0.36 5.34 -1 5 C-0.67 3.35 -0.34 1.7 0 0 Z " fill="#011326" transform="translate(143,340)"/>
<path d="M0 0 C4.20390632 1.50139512 5.89110738 4.17275043 8 8 C7.67 8.99 7.34 9.98 7 11 C5.66104368 9.33784732 4.32869858 7.67036393 3 6 C2.4225 5.278125 1.845 4.55625 1.25 3.8125 C0 2 0 2 0 0 Z " fill="#011C33" transform="translate(108,306)"/>
<path d="M0 0 C0.99 0.66 1.98 1.32 3 2 C3.1875 4.625 3.1875 4.625 3 7 C2.34 6.34 1.68 5.68 1 5 C-1.06874034 4.3574765 -1.06874034 4.3574765 -3 4 C-2.67 3.01 -2.34 2.02 -2 1 C-1.34 0.67 -0.68 0.34 0 0 Z " fill="#003151" transform="translate(183,407)"/>
<path d="M0 0 C2.64 0 5.28 0 8 0 C9.25541557 3.76624671 8.37061958 5.37188934 7 9 C5 6 5 6 5.375 3.3125 C5.58125 2.549375 5.7875 1.78625 6 1 C4.02 1 2.04 1 0 1 C0 0.67 0 0.34 0 0 Z " fill="#003355" transform="translate(301,403)"/>
<path d="M0 0 C0.33 1.32 0.66 2.64 1 4 C-1.95664519 5.4783226 -4.74229737 5.06032783 -8 5 C-7.67 4.01 -7.34 3.02 -7 2 C-4.69 2 -2.38 2 0 2 C0 1.34 0 0.68 0 0 Z " fill="#024C78" transform="translate(261,401)"/>
<path d="M0 0 C2.0625 0.4375 2.0625 0.4375 4 1 C4.33 2.32 4.66 3.64 5 5 C3.02 5 1.04 5 -1 5 C-0.01 4.67 0.98 4.34 2 4 C2 3.34 2 2.68 2 2 C1.01 1.67 0.02 1.34 -1 1 C-0.67 0.67 -0.34 0.34 0 0 Z " fill="#36B3FB" transform="translate(391,405)"/>
<path d="M0 0 C2.0625 0.4375 2.0625 0.4375 4 1 C4.33 2.32 4.66 3.64 5 5 C3.02 5 1.04 5 -1 5 C-0.01 4.67 0.98 4.34 2 4 C2 3.34 2 2.68 2 2 C1.01 1.67 0.02 1.34 -1 1 C-0.67 0.67 -0.34 0.34 0 0 Z " fill="#36B3FB" transform="translate(351,405)"/>
<path d="M0 0 C2.0625 0.4375 2.0625 0.4375 4 1 C4.33 2.32 4.66 3.64 5 5 C3.02 5 1.04 5 -1 5 C-0.01 4.67 0.98 4.34 2 4 C2 3.34 2 2.68 2 2 C1.01 1.67 0.02 1.34 -1 1 C-0.67 0.67 -0.34 0.34 0 0 Z " fill="#36B3FB" transform="translate(314,405)"/>
<path d="M0 0 C1.98 0 3.96 0 6 0 C6 0.66 6 1.32 6 2 C4.68 2 3.36 2 2 2 C2 4.31 2 6.62 2 9 C1.34 8.67 0.68 8.34 0 8 C0 5.36 0 2.72 0 0 Z " fill="#0A6498" transform="translate(151,397)"/>
<path d="M0 0 C2 3 2 3 1.625 5.6875 C1.41875 6.450625 1.2125 7.21375 1 8 C0.34 7.34 -0.32 6.68 -1 6 C-1.99 6.495 -1.99 6.495 -3 7 C-3 6.34 -3 5.68 -3 5 C-3.66 4.67 -4.32 4.34 -5 4 C-3.35 4 -1.7 4 0 4 C0 2.68 0 1.36 0 0 Z " fill="#055686" transform="translate(186,400)"/>
</svg>
